<?xml version="1.0" encoding="utf-8"?>
<!-- Generator: Adobe Illustrator 16.0.0, SVG Export Plug-In . SVG Version: 6.00 Build 0)  -->
<!DOCTYPE svg PUBLIC "-//W3C//DTD SVG 1.1//EN" "http://www.w3.org/Graphics/SVG/1.1/DTD/svg11.dtd">
<svg version="1.1" id="Layer_1" xmlns="http://www.w3.org/2000/svg" xmlns:xlink="http://www.w3.org/1999/xlink" x="0px" y="0px"
	 width="521.257px" height="350.5px" viewBox="0 0 521.257 350.5" enable-background="new 0 0 521.257 350.5" xml:space="preserve">
<g>
	<g>
		<rect x="5.5" y="229" fill="#FCEE21" width="108" height="111"/>
		<rect x="113.151" y="118.792" fill="#0096FF" width="109.72" height="109.723"/>
		<rect x="222.5" y="11" fill="#FF00FF" width="111" height="108"/>
		<g>
			<path fill="#FFFFFF" d="M188.381,201.974h-41.472v-8.726l14.894-15.054c4.407-4.519,7.289-7.648,8.643-9.393
				c1.353-1.745,2.327-3.363,2.922-4.849c0.596-1.489,0.893-3.03,0.893-4.627c0-2.381-0.655-4.154-1.968-5.315
				c-1.313-1.165-3.063-1.745-5.255-1.745c-2.3,0-4.531,0.528-6.695,1.582c-2.165,1.056-4.423,2.557-6.776,4.506l-6.818-8.077
				c2.922-2.489,5.342-4.247,7.263-5.275c1.922-1.028,4.019-1.819,6.292-2.375c2.271-0.553,4.813-0.831,7.629-0.831
				c3.705,0,6.979,0.677,9.819,2.029c2.842,1.353,5.045,3.246,6.614,5.68c1.569,2.437,2.354,5.223,2.354,8.361
				c0,2.734-0.48,5.294-1.44,7.691c-0.961,2.394-2.45,4.849-4.464,7.364c-2.015,2.517-5.565,6.1-10.652,10.754l-7.629,7.181v0.568
				h25.849V201.974z"/>
		</g>
		<g>
			<path fill="#FFFFFF" d="M298.146,45.609c0,3.707-1.124,6.86-3.368,9.455c-2.247,2.598-5.397,4.383-9.456,5.359v0.241
				c4.789,0.596,8.414,2.051,10.875,4.364c2.462,2.313,3.694,5.43,3.694,9.353c0,5.708-2.069,10.152-6.208,13.331
				c-4.141,3.178-10.051,4.769-17.735,4.769c-6.437,0-12.146-1.068-17.124-3.206V78.602c2.3,1.162,4.829,2.11,7.589,2.839
				c2.759,0.732,5.492,1.096,8.198,1.096c4.139,0,7.194-0.704,9.17-2.109c1.974-1.409,2.962-3.667,2.962-6.777
				c0-2.786-1.137-4.763-3.408-5.924c-2.271-1.165-5.897-1.745-10.875-1.745h-4.505v-9.618h4.586c4.6,0,7.96-0.603,10.083-1.807
				c2.124-1.201,3.187-3.265,3.187-6.187c0-4.491-2.813-6.736-8.441-6.736c-1.947,0-3.929,0.324-5.944,0.973
				c-2.016,0.649-4.255,1.773-6.716,3.367l-5.804-8.642c5.411-3.895,11.863-5.844,19.356-5.844c6.141,0,10.989,1.245,14.548,3.734
				C296.367,37.711,298.146,41.173,298.146,45.609z"/>
		</g>
		<g>
			<path d="M144.073,319.402l-1.931-6.341h-9.714l-1.93,6.341h-6.088l9.403-26.751h6.908l9.439,26.751H144.073z M140.793,308.323
				c-1.785-5.748-2.791-8.998-3.015-9.751c-0.226-0.754-0.386-1.35-0.483-1.786c-0.4,1.554-1.549,5.399-3.445,11.537H140.793z"/>
			<path d="M177.149,319.402h-7.18l-11.59-20.157h-0.164c0.23,3.562,0.347,6.101,0.347,7.62v12.537h-5.047v-26.643h7.124
				l11.571,19.956h0.128c-0.182-3.462-0.273-5.912-0.273-7.345v-12.611h5.084V319.402z"/>
			<path d="M200.167,319.402l-1.931-6.341h-9.714l-1.932,6.341h-6.087l9.402-26.751h6.907l9.441,26.751H200.167z M196.887,308.323
				c-1.785-5.748-2.792-8.998-3.017-9.751c-0.224-0.754-0.386-1.35-0.483-1.786c-0.399,1.554-1.547,5.399-3.443,11.537H196.887z"/>
			<path d="M209.607,319.402v-26.643h5.649v21.979h10.806v4.664H209.607z"/>
			<path d="M238.983,303.73l5.559-10.971h6.088l-8.84,16.274v10.369h-5.612v-10.187l-8.84-16.457h6.125L238.983,303.73z"/>
			<path d="M269.708,312.005c0,2.403-0.864,4.299-2.596,5.683c-1.731,1.387-4.141,2.079-7.226,2.079
				c-2.844,0-5.357-0.534-7.546-1.603v-5.248c1.799,0.8,3.32,1.365,4.565,1.692c1.246,0.328,2.384,0.494,3.419,0.494
				c1.238,0,2.188-0.238,2.851-0.713c0.661-0.473,0.993-1.177,0.993-2.113c0-0.522-0.146-0.988-0.438-1.393
				c-0.291-0.408-0.72-0.8-1.284-1.177c-0.565-0.376-1.716-0.976-3.453-1.804c-1.628-0.766-2.85-1.501-3.663-2.205
				c-0.814-0.705-1.465-1.526-1.949-2.458c-0.488-0.936-0.729-2.029-0.729-3.284c0-2.356,0.797-4.207,2.396-5.556
				c1.599-1.35,3.807-2.023,6.624-2.023c1.387,0,2.707,0.164,3.964,0.491c1.259,0.331,2.573,0.791,3.946,1.387l-1.822,4.392
				c-1.421-0.583-2.598-0.991-3.527-1.223c-0.93-0.229-1.844-0.346-2.743-0.346c-1.068,0-1.889,0.25-2.458,0.748
				c-0.572,0.5-0.857,1.149-0.857,1.949c0,0.5,0.116,0.933,0.346,1.304c0.23,0.371,0.598,0.729,1.103,1.075
				c0.505,0.349,1.697,0.97,3.582,1.869c2.489,1.192,4.197,2.384,5.12,3.583C269.248,308.799,269.708,310.266,269.708,312.005z"/>
			<path d="M274.539,319.402v-26.643h5.649v26.643H274.539z"/>
			<path d="M302.621,312.005c0,2.403-0.864,4.299-2.598,5.683c-1.729,1.387-4.139,2.079-7.224,2.079
				c-2.845,0-5.359-0.534-7.546-1.603v-5.248c1.798,0.8,3.32,1.365,4.565,1.692c1.244,0.328,2.384,0.494,3.417,0.494
				c1.238,0,2.188-0.238,2.853-0.713c0.661-0.473,0.991-1.177,0.991-2.113c0-0.522-0.145-0.988-0.436-1.393
				c-0.293-0.408-0.72-0.8-1.284-1.177c-0.565-0.376-1.718-0.976-3.453-1.804c-1.63-0.766-2.852-1.501-3.664-2.205
				c-0.815-0.705-1.464-1.526-1.95-2.458c-0.486-0.936-0.729-2.029-0.729-3.284c0-2.356,0.798-4.207,2.395-5.556
				c1.599-1.35,3.808-2.023,6.626-2.023c1.385,0,2.705,0.164,3.963,0.491c1.258,0.331,2.572,0.791,3.947,1.387l-1.822,4.392
				c-1.423-0.583-2.598-0.991-3.527-1.223c-0.93-0.229-1.845-0.346-2.743-0.346c-1.068,0-1.891,0.25-2.46,0.748
				c-0.571,0.5-0.857,1.149-0.857,1.949c0,0.5,0.116,0.933,0.346,1.304c0.232,0.371,0.6,0.729,1.104,1.075
				c0.505,0.349,1.698,0.97,3.582,1.869c2.49,1.192,4.196,2.384,5.12,3.583C302.159,308.799,302.621,310.266,302.621,312.005z"/>
		</g>
		<g>
			<path d="M126.894,277.075v9.152h-2.558v-22.004h6.035c2.698,0,4.692,0.519,5.983,1.551c1.288,1.035,1.934,2.588,1.934,4.667
				c0,2.909-1.477,4.874-4.426,5.899l5.977,9.887h-3.027l-5.328-9.152H126.894z M126.894,274.879h3.507
				c1.806,0,3.13-0.358,3.974-1.075c0.843-0.72,1.263-1.794,1.263-3.228c0-1.455-0.429-2.505-1.286-3.147
				c-0.857-0.643-2.235-0.963-4.131-0.963h-3.326V274.879z"/>
			<path d="M155.655,286.227h-12.265v-22.004h12.265v2.273h-9.708v7.088h9.122v2.258h-9.122v8.096h9.708V286.227z"/>
			<path d="M172.946,280.374c0,1.937-0.701,3.444-2.106,4.528c-1.405,1.084-3.312,1.625-5.719,1.625
				c-2.608,0-4.616-0.334-6.02-1.007v-2.468c0.903,0.38,1.885,0.683,2.949,0.902c1.064,0.223,2.117,0.331,3.161,0.331
				c1.705,0,2.99-0.321,3.852-0.97c0.863-0.646,1.294-1.547,1.294-2.7c0-0.763-0.152-1.39-0.458-1.875
				c-0.306-0.488-0.817-0.936-1.535-1.347c-0.719-0.411-1.809-0.877-3.272-1.399c-2.048-0.732-3.509-1.6-4.388-2.604
				s-1.317-2.313-1.317-3.929c0-1.695,0.637-3.045,1.912-4.049c1.274-1.004,2.959-1.504,5.056-1.504
				c2.188,0,4.199,0.401,6.036,1.205l-0.797,2.227c-1.816-0.763-3.583-1.143-5.299-1.143c-1.354,0-2.414,0.291-3.176,0.871
				c-0.763,0.584-1.144,1.39-1.144,2.425c0,0.763,0.14,1.387,0.421,1.872c0.281,0.488,0.756,0.933,1.423,1.34
				c0.667,0.408,1.688,0.856,3.063,1.347c2.309,0.822,3.896,1.705,4.764,2.65C172.514,277.643,172.946,278.866,172.946,280.374z"/>
			<path d="M189.712,286.227h-12.266v-22.004h12.266v2.273h-9.707v7.088h9.12v2.258h-9.12v8.096h9.707V286.227z"/>
			<path d="M208.42,286.227l-2.74-6.999h-8.817l-2.709,6.999h-2.589l8.698-22.093h2.152l8.653,22.093H208.42z M204.883,276.927
				l-2.557-6.82c-0.332-0.862-0.674-1.921-1.026-3.175c-0.219,0.964-0.535,2.023-0.947,3.175l-2.589,6.82H204.883z"/>
			<path d="M216.651,277.075v9.152h-2.558v-22.004h6.035c2.698,0,4.691,0.519,5.982,1.551c1.288,1.035,1.934,2.588,1.934,4.667
				c0,2.909-1.477,4.874-4.426,5.899l5.977,9.887h-3.027l-5.327-9.152H216.651z M216.651,274.879h3.507
				c1.806,0,3.131-0.358,3.974-1.075c0.843-0.72,1.264-1.794,1.264-3.228c0-1.455-0.43-2.505-1.287-3.147
				c-0.856-0.643-2.234-0.963-4.131-0.963h-3.326V274.879z"/>
			<path d="M242.568,266.196c-2.419,0-4.327,0.803-5.727,2.416c-1.399,1.609-2.101,3.814-2.101,6.613
				c0,2.879,0.675,5.105,2.024,6.675c1.349,1.572,3.272,2.356,5.771,2.356c1.535,0,3.286-0.278,5.254-0.828v2.242
				c-1.525,0.572-3.406,0.856-5.645,0.856c-3.241,0-5.742-0.982-7.502-2.95c-1.763-1.964-2.643-4.76-2.643-8.383
				c0-2.267,0.425-4.253,1.272-5.958c0.848-1.705,2.072-3.021,3.672-3.944c1.601-0.923,3.484-1.384,5.651-1.384
				c2.309,0,4.325,0.42,6.051,1.263l-1.084,2.199C245.897,266.585,244.233,266.196,242.568,266.196z"/>
			<path d="M269.296,286.227h-2.559v-10.354h-11.589v10.354h-2.558v-22.004h2.558v9.362h11.589v-9.362h2.559V286.227z"/>
			<path d="M282.014,280.522c0-1.304,0.349-2.459,1.046-3.459c0.696-1.004,1.948-2.017,3.754-3.042
				c-0.853-0.951-1.432-1.674-1.737-2.165c-0.308-0.491-0.55-1.004-0.73-1.535c-0.179-0.531-0.271-1.084-0.271-1.656
				c0-1.507,0.491-2.681,1.475-3.521c0.982-0.843,2.354-1.266,4.108-1.266c1.625,0,2.905,0.42,3.839,1.257
				c0.934,0.837,1.399,2.005,1.399,3.5c0,1.075-0.343,2.063-1.023,2.971c-0.683,0.908-1.812,1.829-3.387,2.762l6.124,5.887
				c0.563-0.624,1.012-1.353,1.348-2.19c0.336-0.84,0.62-1.754,0.852-2.749h2.527c-0.683,2.869-1.712,5.047-3.086,6.532l4.5,4.38
				h-3.445l-2.784-2.678c-1.184,1.063-2.388,1.825-3.612,2.286c-1.225,0.463-2.589,0.692-4.094,0.692
				c-2.156,0-3.83-0.531-5.02-1.594S282.014,282.4,282.014,280.522z M288.877,284.284c2.417,0,4.423-0.772,6.02-2.316l-6.577-6.381
				c-1.113,0.683-1.901,1.248-2.363,1.693c-0.461,0.448-0.803,0.926-1.023,1.439c-0.22,0.51-0.33,1.094-0.33,1.745
				c0,1.174,0.389,2.104,1.165,2.792C286.545,283.941,287.583,284.284,288.877,284.284z M286.543,268.603
				c0,0.692,0.181,1.353,0.542,1.98s0.979,1.38,1.851,2.264c1.294-0.75,2.196-1.445,2.702-2.084c0.507-0.637,0.76-1.372,0.76-2.202
				c0-0.775-0.259-1.402-0.774-1.891c-0.517-0.485-1.208-0.729-2.069-0.729c-0.894,0-1.619,0.241-2.175,0.723
				C286.823,267.145,286.543,267.79,286.543,268.603z"/>
		</g>
		<g>
			<path d="M256.125,188.396c0,4.386-1.248,7.747-3.745,10.079s-6.102,3.5-10.814,3.5h-7.546v-26.643h8.364
				c4.351,0,7.728,1.149,10.134,3.444S256.125,184.278,256.125,188.396z M250.257,188.544c0-5.724-2.526-8.583-7.58-8.583h-3.008
				v17.349h2.424C247.535,197.31,250.257,194.388,250.257,188.544z"/>
			<path d="M276.992,201.974h-15.345v-26.643h15.345v4.63h-9.695v5.85h9.021v4.626h-9.021v6.873h9.695V201.974z"/>
			<path d="M298.276,194.576c0,2.403-0.865,4.299-2.596,5.683c-1.731,1.387-4.141,2.079-7.227,2.079
				c-2.843,0-5.357-0.534-7.545-1.603v-5.248c1.799,0.8,3.32,1.365,4.564,1.692c1.246,0.328,2.385,0.494,3.419,0.494
				c1.239,0,2.188-0.238,2.852-0.713c0.661-0.473,0.993-1.177,0.993-2.113c0-0.522-0.146-0.988-0.438-1.393
				c-0.292-0.408-0.72-0.8-1.285-1.177c-0.565-0.377-1.716-0.976-3.453-1.804c-1.628-0.766-2.849-1.501-3.663-2.205
				c-0.813-0.704-1.464-1.526-1.949-2.458c-0.487-0.936-0.729-2.029-0.729-3.283c0-2.357,0.797-4.207,2.396-5.557
				c1.598-1.35,3.807-2.023,6.623-2.023c1.387,0,2.708,0.164,3.965,0.491c1.259,0.331,2.572,0.791,3.945,1.387l-1.822,4.392
				c-1.421-0.583-2.598-0.991-3.527-1.223c-0.93-0.229-1.844-0.346-2.742-0.346c-1.069,0-1.889,0.25-2.459,0.748
				c-0.571,0.5-0.857,1.149-0.857,1.949c0,0.5,0.116,0.933,0.347,1.304c0.229,0.371,0.598,0.729,1.103,1.075
				c0.505,0.349,1.697,0.97,3.581,1.869c2.489,1.192,4.197,2.384,5.121,3.583C297.816,191.37,298.276,192.837,298.276,194.576z"/>
			<path d="M303.107,201.974v-26.643h5.648v26.643H303.107z"/>
			<path d="M325.577,187.012h10.569v13.813c-1.714,0.559-3.326,0.951-4.84,1.177c-1.511,0.225-3.058,0.336-4.636,0.336
				c-4.021,0-7.094-1.18-9.214-3.546c-2.119-2.363-3.18-5.754-3.18-10.177c0-4.299,1.23-7.654,3.691-10.06
				c2.46-2.406,5.869-3.608,10.23-3.608c2.735,0,5.371,0.547,7.91,1.64l-1.878,4.519c-1.942-0.97-3.966-1.458-6.067-1.458
				c-2.441,0-4.398,0.822-5.867,2.462c-1.47,1.64-2.205,3.845-2.205,6.616c0,2.891,0.592,5.1,1.776,6.622
				c1.184,1.526,2.906,2.289,5.167,2.289c1.177,0,2.375-0.124,3.589-0.364v-5.56h-5.047V187.012z"/>
			<path d="M366.126,201.974h-7.182l-11.59-20.157h-0.164c0.23,3.561,0.346,6.1,0.346,7.62v12.537h-5.049v-26.643h7.126
				l11.573,19.956h0.127c-0.183-3.462-0.273-5.912-0.273-7.345v-12.611h5.086V201.974z"/>
		</g>
		<g>
			<path d="M251.501,159.032c0,3.632-0.985,6.409-2.957,8.33c-1.972,1.921-4.808,2.882-8.511,2.882h-6.094V148.24h6.741
				c3.42,0,6.079,0.948,7.976,2.845S251.501,155.631,251.501,159.032z M248.793,159.121c0-2.87-0.72-5.031-2.159-6.486
				c-1.441-1.455-3.58-2.181-6.42-2.181h-3.718v17.578h3.115c3.05,0,5.342-0.75,6.877-2.251
				C248.023,164.282,248.793,162.062,248.793,159.121z"/>
			<path d="M268.673,170.244h-12.265V148.24h12.265v2.273h-9.706v7.089h9.119v2.258h-9.119v8.095h9.706V170.244z"/>
			<path d="M276.107,170.244h-2.559V148.24h12.265v2.273h-9.706v8.052h9.119v2.273h-9.119V170.244z"/>
			<path d="M289.458,170.244V148.24h2.558v22.004H289.458z"/>
			<path d="M315.238,170.244h-2.921l-12.024-18.467h-0.12c0.16,2.168,0.241,4.154,0.241,5.961v12.506h-2.363V148.24h2.89
				l11.995,18.393h0.12c-0.021-0.272-0.064-1.143-0.136-2.613s-0.096-2.52-0.074-3.153V148.24h2.393V170.244z"/>
			<path d="M333.552,170.244h-12.265V148.24h12.265v2.273h-9.706v7.089h9.12v2.258h-9.12v8.095h9.706V170.244z"/>
		</g>
		<g>
			<path d="M362.319,73.333c0,2.869-0.896,5.062-2.688,6.579c-1.793,1.52-4.341,2.28-7.645,2.28h-2.423v9.476h-5.649V65.024h8.51
				c3.23,0,5.688,0.695,7.372,2.085C361.478,68.502,362.319,70.578,362.319,73.333z M349.563,77.562h1.857
				c1.737,0,3.038-0.343,3.899-1.029c0.863-0.686,1.294-1.687,1.294-2.999c0-1.322-0.361-2.301-1.084-2.934
				c-0.723-0.63-1.856-0.945-3.398-0.945h-2.568V77.562z"/>
			<path d="M372.999,81.444v10.224h-5.649V65.024h7.764c3.619,0,6.298,0.658,8.036,1.977c1.736,1.319,2.605,3.32,2.605,6.004
				c0,1.569-0.431,2.962-1.293,4.182c-0.864,1.223-2.085,2.178-3.663,2.873c4.01,5.989,6.621,9.859,7.836,11.607h-6.27
				l-6.359-10.224H372.999z M372.999,76.851h1.822c1.786,0,3.104-0.297,3.955-0.893c0.849-0.596,1.275-1.532,1.275-2.808
				c0-1.264-0.436-2.162-1.304-2.697c-0.868-0.534-2.215-0.8-4.037-0.8h-1.712V76.851z"/>
			<path d="M416.171,78.309c0,4.411-1.094,7.799-3.28,10.168c-2.187,2.369-5.322,3.555-9.403,3.555
				c-4.082,0-7.217-1.186-9.403-3.555c-2.188-2.369-3.28-5.77-3.28-10.205c0-4.432,1.096-7.82,3.289-10.159
				c2.193-2.338,5.336-3.508,9.43-3.508c4.096,0,7.228,1.18,9.396,3.536C415.087,70.498,416.171,73.886,416.171,78.309z
				 M396.726,78.309c0,2.978,0.564,5.22,1.694,6.724c1.131,1.507,2.82,2.261,5.067,2.261c4.508,0,6.76-2.996,6.76-8.985
				c0-6.001-2.24-9.003-6.725-9.003c-2.247,0-3.941,0.757-5.084,2.27C397.296,73.089,396.726,75.331,396.726,78.309z"/>
			<path d="M443.798,78.089c0,4.386-1.248,7.747-3.745,10.079c-2.496,2.332-6.102,3.5-10.817,3.5h-7.542V65.024h8.364
				c4.349,0,7.727,1.149,10.131,3.444C442.595,70.763,443.798,73.972,443.798,78.089z M437.931,78.238
				c0-5.723-2.528-8.583-7.583-8.583h-3.005v17.349h2.423C435.208,87.003,437.931,84.082,437.931,78.238z"/>
			<path d="M471.007,65.024v17.241c0,1.968-0.441,3.691-1.321,5.174c-0.884,1.482-2.156,2.619-3.818,3.407
				c-1.664,0.791-3.632,1.186-5.905,1.186c-3.425,0-6.085-0.877-7.981-2.635c-1.896-1.754-2.843-4.157-2.843-7.206V65.024h5.629
				v16.311c0,2.051,0.414,3.559,1.242,4.519c0.824,0.96,2.192,1.439,4.099,1.439c1.847,0,3.188-0.482,4.019-1.449
				c0.834-0.967,1.247-2.48,1.247-4.546V65.024H471.007z"/>
			<path d="M488.848,69.342c-2.125,0-3.774,0.8-4.939,2.397c-1.167,1.597-1.751,3.824-1.751,6.681c0,5.939,2.23,8.911,6.69,8.911
				c1.871,0,4.136-0.47,6.798-1.406v4.738c-2.187,0.911-4.63,1.368-7.326,1.368c-3.876,0-6.842-1.177-8.893-3.527
				c-2.054-2.351-3.082-5.723-3.082-10.122c0-2.771,0.506-5.198,1.513-7.28c1.008-2.085,2.459-3.682,4.347-4.794
				c1.89-1.112,4.104-1.668,6.644-1.668c2.588,0,5.188,0.627,7.799,1.878l-1.822,4.593c-0.998-0.476-1.999-0.887-3.006-1.242
				C490.809,69.519,489.817,69.342,488.848,69.342z"/>
			<path d="M511.589,91.667h-5.648V69.725h-7.234v-4.701h20.12v4.701h-7.237V91.667z"/>
		</g>
		<g>
			<path d="M353.106,59.934l-7.466-19.505h-0.12c0.139,1.544,0.21,3.382,0.21,5.51v13.995h-2.363V37.93h3.854l6.968,18.152h0.12
				l7.028-18.152h3.824v22.004h-2.561V45.757c0-1.625,0.071-3.392,0.212-5.297h-0.121l-7.525,19.474H353.106z"/>
			<path d="M385.026,59.934l-2.738-6.999h-8.82l-2.71,6.999h-2.588l8.699-22.093h2.152l8.653,22.093H385.026z M381.489,50.634
				l-2.559-6.82c-0.331-0.862-0.672-1.921-1.022-3.175c-0.223,0.964-0.537,2.023-0.948,3.175l-2.589,6.82H381.489z"/>
			<path d="M406.593,59.934h-3.012l-8.021-10.671l-2.301,2.048v8.624H390.7V37.93h2.559v10.913l9.977-10.913h3.027l-8.852,9.557
				L406.593,59.934z"/>
			<path d="M421.882,59.934h-12.266V37.93h12.266v2.273h-9.706v7.088h9.119v2.258h-9.119v8.096h9.706V59.934z"/>
		</g>
	</g>
	<g>
		<path fill="#FFFFFF" d="M68.781,310.982H56.243v-34.331l0.122-5.64l0.202-6.168c-2.083,2.085-3.53,3.45-4.341,4.099l-6.818,5.479
			l-6.046-7.549l19.113-15.218h10.307V310.982z"/>
	</g>
</g>
</svg>
