<?xml version="1.0" encoding="utf-8"?>
<!-- Generator: Adobe Illustrator 16.0.0, SVG Export Plug-In . SVG Version: 6.00 Build 0)  -->
<!DOCTYPE svg PUBLIC "-//W3C//DTD SVG 1.1//EN" "http://www.w3.org/Graphics/SVG/1.1/DTD/svg11.dtd">
<svg version="1.1" id="Layer_1" xmlns="http://www.w3.org/2000/svg" xmlns:xlink="http://www.w3.org/1999/xlink" x="0px" y="0px"
	 width="38px" height="44px" viewBox="0 0 38 44" enable-background="new 0 0 38 44" xml:space="preserve">
<path opacity="0.7" fill="#FFFFFF" stroke="#FFFFFF" stroke-width="3" stroke-miterlimit="10" d="M35.925,22.185
	c-0.463-0.277-1.11-0.092-1.295,0.37L19,40.034L3.37,22.555C3.092,22.093,2.538,22,2.076,22.185
	c-0.462,0.277-0.648,0.833-0.371,1.203l16.37,18.404c0.185,0.277,0.555,0.463,0.925,0.463s0.739-0.186,0.925-0.463l16.37-18.313
	C36.572,23.018,36.387,22.462,35.925,22.185z"/>
<path opacity="0.4" fill="#FFFFFF" stroke="#FFFFFF" stroke-width="3" stroke-miterlimit="10" d="M18.075,21.445
	c0.185,0.277,0.555,0.462,0.925,0.462s0.739-0.185,0.925-0.462l16.37-18.312c0.277-0.462,0.092-1.017-0.37-1.203
	c-0.463-0.277-1.11-0.092-1.295,0.371L19,19.688L3.37,2.208c-0.278-0.462-0.832-0.555-1.294-0.37
	C1.613,2.116,1.428,2.671,1.705,3.133L18.075,21.445z"/>
</svg>
