<?xml version="1.0" encoding="utf-8"?>
<!-- Generator: Adobe Illustrator 16.0.0, SVG Export Plug-In . SVG Version: 6.00 Build 0)  -->
<!DOCTYPE svg PUBLIC "-//W3C//DTD SVG 1.1//EN" "http://www.w3.org/Graphics/SVG/1.1/DTD/svg11.dtd">
<svg version="1.1" id="Layer_1" xmlns="http://www.w3.org/2000/svg" xmlns:xlink="http://www.w3.org/1999/xlink" x="0px" y="0px"
	 width="1638.625px" height="1780.064px" viewBox="0 0 1638.625 1780.064" enable-background="new 0 0 1638.625 1780.064"
	 xml:space="preserve">
<g>
	<path fill="#C9C9C9" d="M1625.287,1304.24c0,45.388-36.792,82.172-82.172,82.172H140.032c-45.384,0-82.172-36.784-82.172-82.172
		V346.231c0-45.384,36.788-82.172,82.172-82.172h1403.083c45.38,0,82.172,36.788,82.172,82.172V1304.24z"/>
	<path fill="#C9C9C9" d="M57.861,1165.816v138.424c0,45.388,36.788,82.172,82.172,82.172h1403.083
		c45.38,0,82.172-36.784,82.172-82.172v-138.424H57.861z"/>
	<rect x="111.747" y="314.37" fill="#BFDFD4" width="1459.652" height="851.446"/>
	<polygon fill="#959696" points="978.297,1386.412 704.851,1386.412 632.106,1681.006 1051.041,1681.006 	"/>
	<path fill="#C9C9C9" d="M1175.112,1681.006c0,14.78-11.984,26.765-26.764,26.765H534.799c-14.78,0-26.764-11.984-26.764-26.765l0,0
		c0-14.779,11.983-26.764,26.764-26.764h613.549C1163.127,1654.242,1175.112,1666.227,1175.112,1681.006L1175.112,1681.006z"/>
	<g>
		<rect x="149.184" y="386.056" fill-rule="evenodd" clip-rule="evenodd" fill="#969697" width="510.3" height="712.734"/>
		<g>
			<rect x="186.449" y="427.153" fill-rule="evenodd" clip-rule="evenodd" fill="#EF675D" width="244.955" height="9.302"/>
			<rect x="186.449" y="450.159" fill-rule="evenodd" clip-rule="evenodd" fill="#97C7E3" width="78.489" height="9.306"/>
			<rect x="186.449" y="473.097" fill-rule="evenodd" clip-rule="evenodd" fill="#C9C9C9" width="126.576" height="9.311"/>
			<rect x="245.346" y="496.104" fill-rule="evenodd" clip-rule="evenodd" fill="#97C7E3" width="73.868" height="9.31"/>
			<rect x="245.346" y="519.057" fill-rule="evenodd" clip-rule="evenodd" fill="#97C7E3" width="73.868" height="9.307"/>
			<rect x="296.615" y="542.06" fill-rule="evenodd" clip-rule="evenodd" fill="#97C7E3" width="71.844" height="9.306"/>
			<rect x="291.356" y="450.159" fill-rule="evenodd" clip-rule="evenodd" fill="#C9C9C9" width="133.864" height="9.306"/>
			<rect x="444.296" y="450.159" fill-rule="evenodd" clip-rule="evenodd" fill="#C9C9C9" width="63.927" height="9.306"/>
			<rect x="532.497" y="450.159" fill-rule="evenodd" clip-rule="evenodd" fill="#C9C9C9" width="86.294" height="9.306"/>
			<rect x="334.183" y="473.097" fill-rule="evenodd" clip-rule="evenodd" fill="#97C7E3" width="75.314" height="9.311"/>
			<rect x="341.756" y="496.104" fill-rule="evenodd" clip-rule="evenodd" fill="#C9C9C9" width="43.115" height="9.31"/>
			<rect x="341.756" y="519.057" fill-rule="evenodd" clip-rule="evenodd" fill="#C9C9C9" width="73.871" height="9.307"/>
			<rect x="405.397" y="496.104" fill-rule="evenodd" clip-rule="evenodd" fill="#C9C9C9" width="82.074" height="9.31"/>
			<rect x="503.888" y="496.104" fill-rule="evenodd" clip-rule="evenodd" fill="#C9C9C9" width="43.059" height="9.31"/>
			<rect x="565.443" y="496.104" fill-rule="evenodd" clip-rule="evenodd" fill="#C9C9C9" width="53.349" height="9.31"/>
			<rect x="432.043" y="519.057" fill-rule="evenodd" clip-rule="evenodd" fill="#C9C9C9" width="93.288" height="9.307"/>
			<rect x="539.259" y="519.057" fill-rule="evenodd" clip-rule="evenodd" fill="#C9C9C9" width="27.861" height="9.307"/>
			<rect x="388.979" y="542.06" fill-rule="evenodd" clip-rule="evenodd" fill="#C9C9C9" width="53.408" height="9.306"/>
			<rect x="245.346" y="588.012" fill-rule="evenodd" clip-rule="evenodd" fill="#97C7E3" width="73.868" height="9.302"/>
			<rect x="245.346" y="611.01" fill-rule="evenodd" clip-rule="evenodd" fill="#97C7E3" width="73.868" height="9.313"/>
			<rect x="341.756" y="588.012" fill-rule="evenodd" clip-rule="evenodd" fill="#C9C9C9" width="43.115" height="9.302"/>
			<rect x="341.756" y="611.01" fill-rule="evenodd" clip-rule="evenodd" fill="#C9C9C9" width="66.527" height="9.313"/>
			<rect x="405.397" y="588.012" fill-rule="evenodd" clip-rule="evenodd" fill="#C9C9C9" width="63.113" height="9.302"/>
			<rect x="481.113" y="588.012" fill-rule="evenodd" clip-rule="evenodd" fill="#C9C9C9" width="33.182" height="9.302"/>
			<rect x="528.511" y="588.012" fill-rule="evenodd" clip-rule="evenodd" fill="#C9C9C9" width="41.038" height="9.302"/>
			<rect x="473.022" y="611.01" fill-rule="evenodd" clip-rule="evenodd" fill="#C9C9C9" width="73.925" height="9.313"/>
			<rect x="245.346" y="633.963" fill-rule="evenodd" clip-rule="evenodd" fill="#97C7E3" width="73.868" height="9.307"/>
			<rect x="245.346" y="656.966" fill-rule="evenodd" clip-rule="evenodd" fill="#97C7E3" width="73.868" height="9.306"/>
			<rect x="341.756" y="633.963" fill-rule="evenodd" clip-rule="evenodd" fill="#C9C9C9" width="43.115" height="9.307"/>
			<rect x="341.756" y="656.966" fill-rule="evenodd" clip-rule="evenodd" fill="#C9C9C9" width="135.425" height="9.306"/>
			<rect x="405.397" y="633.963" fill-rule="evenodd" clip-rule="evenodd" fill="#C9C9C9" width="82.074" height="9.307"/>
			<rect x="503.888" y="633.963" fill-rule="evenodd" clip-rule="evenodd" fill="#C9C9C9" width="43.059" height="9.307"/>
			<rect x="565.443" y="633.963" fill-rule="evenodd" clip-rule="evenodd" fill="#C9C9C9" width="53.349" height="9.307"/>
			<rect x="493.598" y="656.966" fill-rule="evenodd" clip-rule="evenodd" fill="#C9C9C9" width="75.951" height="9.306"/>
			<rect x="423.084" y="611.01" fill-rule="evenodd" clip-rule="evenodd" fill="#C9C9C9" width="31.439" height="9.313"/>
			<rect x="186.449" y="702.918" fill-rule="evenodd" clip-rule="evenodd" fill="#97C7E3" width="78.489" height="9.303"/>
			<rect x="186.449" y="725.863" fill-rule="evenodd" clip-rule="evenodd" fill="#C9C9C9" width="126.576" height="9.307"/>
			<rect x="245.346" y="748.866" fill-rule="evenodd" clip-rule="evenodd" fill="#97C7E3" width="73.868" height="9.313"/>
			<rect x="245.346" y="771.819" fill-rule="evenodd" clip-rule="evenodd" fill="#97C7E3" width="73.868" height="9.359"/>
			<rect x="296.615" y="794.821" fill-rule="evenodd" clip-rule="evenodd" fill="#97C7E3" width="71.844" height="9.307"/>
			<rect x="291.356" y="702.918" fill-rule="evenodd" clip-rule="evenodd" fill="#C9C9C9" width="74.272" height="9.303"/>
			<rect x="384.644" y="702.918" fill-rule="evenodd" clip-rule="evenodd" fill="#C9C9C9" width="37.514" height="9.303"/>
			<rect x="446.433" y="702.918" fill-rule="evenodd" clip-rule="evenodd" fill="#C9C9C9" width="119.303" height="9.303"/>
			<rect x="334.183" y="725.863" fill-rule="evenodd" clip-rule="evenodd" fill="#97C7E3" width="75.314" height="9.307"/>
			<rect x="341.756" y="748.866" fill-rule="evenodd" clip-rule="evenodd" fill="#C9C9C9" width="84.157" height="9.313"/>
			<rect x="341.756" y="771.819" fill-rule="evenodd" clip-rule="evenodd" fill="#C9C9C9" width="57.453" height="9.359"/>
			<rect x="446.433" y="748.866" fill-rule="evenodd" clip-rule="evenodd" fill="#C9C9C9" width="62.536" height="9.313"/>
			<rect x="415.627" y="771.819" fill-rule="evenodd" clip-rule="evenodd" fill="#C9C9C9" width="109.704" height="9.359"/>
			<rect x="539.259" y="771.819" fill-rule="evenodd" clip-rule="evenodd" fill="#C9C9C9" width="27.861" height="9.359"/>
			<rect x="388.979" y="794.821" fill-rule="evenodd" clip-rule="evenodd" fill="#C9C9C9" width="53.408" height="9.307"/>
			<rect x="454.235" y="794.821" fill-rule="evenodd" clip-rule="evenodd" fill="#C9C9C9" width="99.418" height="9.307"/>
			<rect x="568.449" y="794.821" fill-rule="evenodd" clip-rule="evenodd" fill="#C9C9C9" width="29.71" height="9.307"/>
			<rect x="245.346" y="840.78" fill-rule="evenodd" clip-rule="evenodd" fill="#97C7E3" width="73.868" height="9.297"/>
			<rect x="245.346" y="863.773" fill-rule="evenodd" clip-rule="evenodd" fill="#97C7E3" width="73.868" height="9.313"/>
			<rect x="341.756" y="840.78" fill-rule="evenodd" clip-rule="evenodd" fill="#C9C9C9" width="121.613" height="9.297"/>
			<rect x="341.756" y="863.773" fill-rule="evenodd" clip-rule="evenodd" fill="#C9C9C9" width="66.527" height="9.313"/>
			<rect x="481.113" y="840.78" fill-rule="evenodd" clip-rule="evenodd" fill="#C9C9C9" width="33.182" height="9.297"/>
			<rect x="528.511" y="840.78" fill-rule="evenodd" clip-rule="evenodd" fill="#C9C9C9" width="41.038" height="9.297"/>
			<rect x="473.022" y="863.773" fill-rule="evenodd" clip-rule="evenodd" fill="#C9C9C9" width="73.925" height="9.313"/>
			<rect x="423.084" y="863.773" fill-rule="evenodd" clip-rule="evenodd" fill="#C9C9C9" width="31.439" height="9.313"/>
			<rect x="186.449" y="901.467" fill-rule="evenodd" clip-rule="evenodd" fill="#97C7E3" width="78.489" height="9.306"/>
			<rect x="186.449" y="924.416" fill-rule="evenodd" clip-rule="evenodd" fill="#C9C9C9" width="126.576" height="9.296"/>
			<rect x="245.346" y="947.408" fill-rule="evenodd" clip-rule="evenodd" fill="#97C7E3" width="73.868" height="9.313"/>
			<rect x="245.346" y="970.361" fill-rule="evenodd" clip-rule="evenodd" fill="#97C7E3" width="73.868" height="9.306"/>
			<rect x="296.615" y="993.367" fill-rule="evenodd" clip-rule="evenodd" fill="#97C7E3" width="71.844" height="9.303"/>
			<rect x="291.356" y="901.467" fill-rule="evenodd" clip-rule="evenodd" fill="#C9C9C9" width="74.272" height="9.306"/>
			<rect x="384.644" y="901.467" fill-rule="evenodd" clip-rule="evenodd" fill="#C9C9C9" width="37.514" height="9.306"/>
			<rect x="446.433" y="901.467" fill-rule="evenodd" clip-rule="evenodd" fill="#C9C9C9" width="172.358" height="9.306"/>
			<rect x="334.183" y="924.416" fill-rule="evenodd" clip-rule="evenodd" fill="#97C7E3" width="75.314" height="9.296"/>
			<rect x="341.756" y="947.408" fill-rule="evenodd" clip-rule="evenodd" fill="#C9C9C9" width="84.157" height="9.313"/>
			<rect x="341.756" y="970.361" fill-rule="evenodd" clip-rule="evenodd" fill="#C9C9C9" width="57.453" height="9.306"/>
			<rect x="446.433" y="947.408" fill-rule="evenodd" clip-rule="evenodd" fill="#C9C9C9" width="62.536" height="9.313"/>
			<rect x="525.389" y="947.408" fill-rule="evenodd" clip-rule="evenodd" fill="#C9C9C9" width="38.031" height="9.313"/>
			<rect x="581.914" y="947.408" fill-rule="evenodd" clip-rule="evenodd" fill="#C9C9C9" width="36.877" height="9.313"/>
			<rect x="415.627" y="970.361" fill-rule="evenodd" clip-rule="evenodd" fill="#C9C9C9" width="109.704" height="9.306"/>
			<rect x="539.259" y="970.361" fill-rule="evenodd" clip-rule="evenodd" fill="#C9C9C9" width="27.861" height="9.306"/>
			<rect x="388.979" y="993.367" fill-rule="evenodd" clip-rule="evenodd" fill="#C9C9C9" width="53.408" height="9.303"/>
			<rect x="245.346" y="1039.322" fill-rule="evenodd" clip-rule="evenodd" fill="#97C7E3" width="73.868" height="9.296"/>
			<rect x="245.346" y="1062.314" fill-rule="evenodd" clip-rule="evenodd" fill="#97C7E3" width="73.868" height="9.311"/>
			<rect x="341.756" y="1039.322" fill-rule="evenodd" clip-rule="evenodd" fill="#C9C9C9" width="121.613" height="9.296"/>
			<rect x="341.756" y="1062.314" fill-rule="evenodd" clip-rule="evenodd" fill="#C9C9C9" width="66.527" height="9.311"/>
			<rect x="481.113" y="1039.322" fill-rule="evenodd" clip-rule="evenodd" fill="#C9C9C9" width="33.182" height="9.296"/>
			<rect x="528.511" y="1039.322" fill-rule="evenodd" clip-rule="evenodd" fill="#C9C9C9" width="41.038" height="9.296"/>
			<rect x="473.022" y="1062.314" fill-rule="evenodd" clip-rule="evenodd" fill="#C9C9C9" width="73.925" height="9.311"/>
			<rect x="423.084" y="1062.314" fill-rule="evenodd" clip-rule="evenodd" fill="#C9C9C9" width="31.439" height="9.311"/>
		</g>
		<rect x="149.184" y="365.873" fill-rule="evenodd" clip-rule="evenodd" fill="#4EC5E7" width="510.3" height="41.089"/>
	</g>
	<g>
		<path fill="#C9A36A" d="M186.821,1256.036c0,12.205,8.152,22.098,18.206,22.098c10.058,0,18.209-9.893,18.209-22.098
			c0-12.2-8.151-22.097-18.209-22.097C194.973,1233.939,186.821,1243.836,186.821,1256.036z"/>
		<g>
			<path fill="#E3A747" d="M143.06,1368.021c10.599,0,22.495-1.813,35.576-6.444c50.048-17.728,52.286-74.684,46.479-102.325
				l-37.683,7.921l18.839-3.961l-18.854,3.887c0.389,1.925,9.165,47.276-21.634,58.181c-34.619,12.262-53.735-6.557-53.92-6.752
				l-27.957,26.473C85.031,1346.186,106.24,1368.021,143.06,1368.021z"/>
		</g>
		<rect x="108.915" y="1298.443" fill="#F8C980" width="19.039" height="35.712"/>
		<g>
			<path fill="#F8C980" d="M77.618,1199.62c20.051-12.29,46.269-6,58.562,14.055l8.504,13.875l3.481-2.136
				c2.806-1.719,6.467-0.837,8.183,1.962c1.72,2.802,0.842,6.467-1.964,8.187l-3.481,2.135l2.281,3.723
				c12.291,20.054,19.532,37.978-0.522,50.271c-20.055,12.289-59.805,14.289-72.094-5.765l-17.004-27.745
				C51.273,1238.127,57.563,1211.913,77.618,1199.62z"/>
			<path fill="#754C24" d="M104.975,1169.651c0,0,33.811,10.586,18.587,33.585c-15.22,22.995-41.87,22.242-42.858,32.241
				l21.181,34.558l-4.348,2.663c0,0-9.515-20.64-18.221-7.903c-8.706,12.734,12.645,25.276,19.589,16.176
				c0,0,15.856,6.707,15.846,19.987c0,0-20.097,19.058-37.253-8.005c-17.149-27.064-44.937-59.852-23.099-70.668
				c0,0-0.874-27.343,33.012-35.316C121.294,1178.994,104.975,1169.651,104.975,1169.651z"/>
		</g>
		<path fill="#FFFFFF" d="M40.244,1638.357c0,0-23.201,18.261-21.677,28.53l27.393,15.859h44.89c0,0,12.141-26.306-23.354-31.716
			L40.244,1638.357z"/>
		<path fill="#7E803D" d="M84.342,1525.87c0,0,6.085,90.412-48.698,114.761c0,0,14.102,22.971,48.9,15.291
			c0,0,52.239-19.096,55.313-111.923L84.342,1525.87z"/>
		<path fill="#FFFFFF" d="M162.265,1654.466c0,0-5.615,19.771,1.404,28.221h71.76c0,0,9.068-27.414-20.556-26.765L162.265,1654.466z
			"/>
		<path fill="#999B4C" d="M77.156,1484.653c0,0-9.896,60.106,31.193,73.803l52.146,22.068v75.397c0,0,30.029,16.052,54.377,0
			c0,0,4.568-91.89-12.172-110.274c-16.741-18.385-46.414-60.994-46.414-60.994H77.156z"/>
		<path fill="#FFBA4F" d="M71.069,1501.318v-133.466c0-35.928,21.631-54.398,48.317-54.398s48.318,18.471,48.318,54.398v133.466
			H71.069z"/>
		<g>
			<g>
				<path fill="#EDE4C7" d="M321.605,1193.344c0,7.235-5.869,13.106-13.108,13.106c-7.238,0-13.107-5.871-13.107-13.106
					c0-7.243,5.869-13.114,13.107-13.114C315.736,1180.229,321.605,1186.101,321.605,1193.344z"/>
				<path fill="#EDE4C7" d="M319.147,1194.572c0,6.557-5.318,11.878-11.879,11.878s-11.879-5.321-11.879-11.878
					c0-6.563,5.318-11.881,11.879-11.881S319.147,1188.009,319.147,1194.572z"/>
			</g>
			<g>
				<path fill="#013C49" d="M319.764,1228.467c0.458,1.641-0.51,3.362-2.152,3.821l-1.56,0.439
					c-1.643,0.455-3.363-0.511-3.823-2.151l-20.907-74.606c-0.458-1.645,0.51-3.367,2.15-3.829l1.562-0.433
					c1.641-0.463,3.365,0.507,3.823,2.148L319.764,1228.467z"/>
				<path fill="#013C49" d="M251.448,1223.479c0.553,1.968-0.607,4.035-2.576,4.59l-21.534,6.031
					c-1.973,0.555-4.039-0.608-4.589-2.579l-8.176-29.169c-0.552-1.975,0.609-4.038,2.582-4.593l21.531-6.031
					c1.974-0.55,4.036,0.607,4.589,2.579L251.448,1223.479z"/>
			</g>
			<g>
				<path fill="#EDE4C7" d="M214.78,1203.083c-5.212,2.956-7.997,9.171-6.313,15.182l0.965,3.435c1.682,6.01,7.29,9.878,13.279,9.69
					L214.78,1203.083z"/>
				<path fill="#EDE4C7" d="M243.276,1194.311l8.296,29.602c29.125-5.793,52.466,1.918,60.202,5.037l-19.977-71.292
					C286.722,1164.736,270.828,1184.103,243.276,1194.311z"/>
				<path fill="#EDE4C7" d="M306.178,1208.973c-22.779-8.351-52.28-0.035-58.281,1.822l3.675,13.117
					c29.125-5.793,52.466,1.918,60.202,5.037L306.178,1208.973z"/>
				<path opacity="0.53" fill="#EDE4C7" d="M291.797,1157.657c-5.075,7.079-20.969,26.445-48.521,36.653l0.517,1.843
					c7.541-2.905,33.734-12.961,49.838-31.953L291.797,1157.657z"/>
				<path opacity="0.41" fill="#EDE4C7" d="M218.267,1219.025c-1.756,0.429-5.787,1.132-9.649-0.225l0.814,2.898
					c1.682,6.01,7.29,9.878,13.279,9.69l-3.537-12.621l0,0C219.174,1218.769,218.844,1218.883,218.267,1219.025z"/>
			</g>
			<path fill="#D33626" d="M226.213,1234.416c0.051,0.12,0.077,0.255,0.153,0.369l3.502,5.153c0.566,0.831,1.705,1.056,2.549,0.505
				l7.071,26.839l0.272,0.97l0.487,1.733c0.274,0.983,1.309,1.563,2.29,1.289l12.368-3.467c0.982-0.273,1.564-1.308,1.29-2.291
				l-0.762-2.703c-0.272-0.983-1.354-1.552-2.29-1.289c0,0-2.786-7.204-3.701-10.472c-1.152-4.109-4.209-15.018-5.217-18.615
				l3.358-2.284c0.649-0.438,0.923-1.219,0.766-1.94L226.213,1234.416z"/>
			<path fill="#D33626" d="M237.988,1231.116l-11.774,3.3c0.051,0.12,0.077,0.255,0.153,0.369l3.502,5.153
				c0.566,0.831,1.705,1.056,2.549,0.505l7.071,26.839l0.272,0.97l0.487,1.733c0.274,0.983,1.309,1.563,2.29,1.289l6.25-1.751
				L237.988,1231.116z"/>
			<g>
				<polygon fill="#011E23" points="244.227,1232.438 248.532,1238.78 246.486,1240.458 				"/>
				<g>
					<path fill="#013C49" d="M219.174,1218.769l3.575,12.752c0.55,1.971,2.616,3.134,4.589,2.579l21.534-6.031
						c1.969-0.555,3.129-2.622,2.576-4.59l-3.571-12.752L219.174,1218.769z"/>
					<path fill="#013C49" d="M302.388,1195.453l9.841,35.123c0.46,1.641,2.181,2.606,3.823,2.151l1.56-0.439
						c1.643-0.459,2.61-2.181,2.152-3.821l-9.843-35.123L302.388,1195.453z"/>
				</g>
			</g>
			<path fill="#26D1DA" d="M315.334,1174.935c4.679,2.799,8.646,7.601,10.752,13.707c2.106,6.109,1.944,12.335-0.012,17.426
				c4.457-4.912,6.169-12.042,3.854-18.748C327.613,1180.606,321.87,1176.053,315.334,1174.935z"/>
			<path opacity="0.71" fill="#26D1DA" d="M327.051,1153.562c8.217,6.809,14.815,17.451,17.773,30.241
				c2.96,12.787,1.704,25.248-2.694,34.966c8.994-8.729,13.255-22.597,10.003-36.655
				C348.882,1168.061,338.957,1157.469,327.051,1153.562z"/>
			<path opacity="0.45" fill="#26D1DA" d="M350.849,1134.065c9.211,10.115,17.418,25.517,22.363,43.706
				c4.944,18.187,5.665,35.641,2.844,49.018c7.524-11.683,9.558-30.92,4.124-50.91
				C374.741,1155.888,363.258,1140.323,350.849,1134.065z"/>
		</g>
		<ellipse fill="#F8C980" cx="242.803" cy="1262.195" rx="22.359" ry="27.134"/>
		<g>
			<path fill="#FFBA4F" d="M166.706,1399.711c13.017,0,27.624-2.224,43.69-7.914c61.455-21.768,64.205-91.712,57.072-125.654
				l-46.274,9.725l23.137-4.863l-23.155,4.774c0.476,2.361,11.256,58.054-26.565,71.448c-42.51,15.053-65.985-8.053-66.212-8.294
				l-34.333,32.507C95.446,1372.9,121.492,1399.711,166.706,1399.711z"/>
		</g>
		<g>
			<path fill="#FFEE00" d="M139.919,1186.229c-11.817-19.444-42.01-22.68-67.432-7.229c-25.423,15.458-36.447,43.746-24.627,63.187
				c0.17,0.287,0.358,0.55,0.538,0.828l92.001-55.927C140.239,1186.798,140.09,1186.514,139.919,1186.229z"/>
			<path fill="#FFEE00" d="M48.555,1242.919l-3.809,2.312c0,0-2.519-1.278,1.36-6.343"/>
			<path fill="#FFEE00" d="M140.015,1187.323l9.529-5.794c0,0-0.594-1.243-3.371-0.713c-2.773,0.533-9.439,2.986-9.439,2.986"/>
		</g>
		<path fill="#D5C21D" d="M72.487,1179.001c21.591-13.121,46.581-12.72,60.874-0.401c-13.334-15.796-40.956-17.551-64.511-3.236
			c-24.188,14.705-35.296,41.012-26.145,60.274l2.212,3.644l1.084-0.656C37.415,1219.423,48.577,1193.539,72.487,1179.001z"/>
		<path fill="#FFEE00" d="M15.125,1187.629c0.17,0.287,0.358,0.551,0.538,0.827l0.158-0.096l-2.213-3.644
			C14.075,1185.7,14.551,1186.685,15.125,1187.629z"/>
	</g>
	<rect x="711.802" y="405.884" fill-rule="evenodd" clip-rule="evenodd" fill="#EFEFEF" width="797.094" height="692.906"/>
	<rect x="750.625" y="435" fill="#B0B0B0" width="160" height="54"/>
	<circle fill="#B0B0B0" cx="853.558" cy="874.62" r="57.975"/>
	<rect x="767.379" y="973.525" fill-rule="evenodd" clip-rule="evenodd" fill="#7AC643" width="172.359" height="9.307"/>
	<rect x="767.379" y="1009.897" fill-rule="evenodd" clip-rule="evenodd" fill="#C9C9C9" width="172.359" height="9.307"/>
	<rect x="767.379" y="1046.271" fill-rule="evenodd" clip-rule="evenodd" fill="#C9C9C9" width="172.359" height="9.306"/>
	<rect x="767.379" y="1082.643" fill-rule="evenodd" clip-rule="evenodd" fill="#C9C9C9" width="172.359" height="9.306"/>
	
		<rect x="732.625" y="544" fill="none" stroke="#868685" stroke-width="8" stroke-miterlimit="10" stroke-dasharray="32.7351,43.6468" width="739" height="244"/>
	
		<rect x="1245.625" y="835" fill="none" stroke="#868685" stroke-width="8" stroke-miterlimit="10" stroke-dasharray="32.7351,43.6468" width="221" height="243"/>
	
		<rect x="975.625" y="835" fill="none" stroke="#868685" stroke-width="8" stroke-miterlimit="10" stroke-dasharray="32.7351,43.6468" width="222" height="243"/>
	<rect x="711.802" y="365.873" fill-rule="evenodd" clip-rule="evenodd" fill="#4EC5E7" width="797.094" height="41.089"/>
	<g>
		<rect x="872.778" y="343.418" fill="#4B4B4B" width="16.872" height="41.146"/>
		<rect x="889.65" y="327.203" fill="#4B4B4B" width="16.872" height="73.576"/>
		<rect x="832.369" y="353.907" fill="#666666" width="40.408" height="20.37"/>
		<rect x="1304.529" y="343.418" fill="#4B4B4B" width="16.872" height="41.146"/>
		<rect x="1287.656" y="327.203" fill="#4B4B4B" width="16.872" height="73.576"/>
		<rect x="1321.401" y="353.907" fill="#666666" width="40.407" height="20.37"/>
		<rect x="832.369" y="34.072" fill="#666666" width="20.371" height="339.385"/>
		<rect x="1341.604" y="34.072" fill="#666666" width="20.371" height="339.385"/>
		<g>
			
				<image overflow="visible" opacity="0.1" width="449" height="388" xlink:href="5EDEB77D.png"  transform="matrix(1 0 0 1 872.8899 347.2646)">
			</image>
			<g>
				<g>
					<rect x="906.522" y="278.844" fill="#FFFFFF" width="381.137" height="320.957"/>
					<rect x="927.831" y="311.439" fill="#ABB5BC" width="189.317" height="11.281"/>
					<rect x="927.831" y="347.599" fill="#ABB5BC" width="189.317" height="11.28"/>
					<rect x="927.831" y="383.754" fill="#ABB5BC" width="189.317" height="11.286"/>
					<rect x="927.831" y="419.91" fill="#ABB5BC" width="340.99" height="11.284"/>
					<rect x="927.831" y="456.069" fill="#ABB5BC" width="340.99" height="11.28"/>
					<rect x="927.831" y="492.225" fill="#ABB5BC" width="340.99" height="11.285"/>
					<rect x="927.831" y="528.38" fill="#ABB5BC" width="340.99" height="11.285"/>
					<rect x="927.831" y="564.539" fill="#ABB5BC" width="340.99" height="11.282"/>
					
						<rect x="1135.718" y="311.439" fill="#FF901E" stroke="#FF901E" stroke-width="3.6372" stroke-miterlimit="10" width="133.104" height="84.842"/>
				</g>
			</g>
		</g>
	</g>
</g>
</svg>
