<?xml version="1.0" encoding="utf-8"?>
<!-- Generator: Adobe Illustrator 16.0.0, SVG Export Plug-In . SVG Version: 6.00 Build 0)  -->
<!DOCTYPE svg PUBLIC "-//W3C//DTD SVG 1.1//EN" "http://www.w3.org/Graphics/SVG/1.1/DTD/svg11.dtd">
<svg version="1.1" id="Layer_1" xmlns="http://www.w3.org/2000/svg" xmlns:xlink="http://www.w3.org/1999/xlink" x="0px" y="0px"
	 width="477px" height="375.167px" viewBox="61.188 11.833 477 375.167" enable-background="new 61.188 11.833 477 375.167"
	 xml:space="preserve">
<g opacity="0.85">
	
		<circle fill="none" stroke="#000000" stroke-width="2.8027" stroke-miterlimit="10" stroke-dasharray="8.408,11.2107" cx="287.447" cy="207.168" r="175.635"/>
	<path d="M199.851,172.944c-22.547,0-40.893,18.346-40.893,40.893c0,22.549,18.346,40.894,40.893,40.894
		c22.548,0,40.894-18.344,40.894-40.894C240.745,191.29,222.399,172.944,199.851,172.944z M199.851,174.81
		c21.514,0,39.002,17.514,39.002,39.027s-17.488,39.002-39.002,39.002c-21.512,0-39.002-17.487-39.002-39.002
		C160.849,192.323,178.339,174.81,199.851,174.81z M199.851,178.771c-12.255,0-23.043,6.271-29.314,15.793
		c0.824,0.026,1.617,0.052,2.274,0.052c3.668,0,9.328-0.459,9.328-0.459c1.89-0.111,2.12,2.663,0.229,2.887
		c0,0-1.898,0.247-4.012,0.358l12.779,37.979l7.667-23.026l-5.47-14.951c-1.891-0.11-3.681-0.358-3.681-0.358
		c-1.891-0.11-1.661-2.999,0.229-2.888c0,0,5.78,0.46,9.227,0.46c3.668,0,9.354-0.46,9.354-0.46c1.892-0.11,2.122,2.664,0.229,2.888
		c0,0-1.9,0.248-4.012,0.358l12.678,37.697l3.502-11.705c1.514-4.854,2.681-8.32,2.681-11.322c0-4.338-1.552-7.35-2.886-9.688
		c-1.777-2.892-3.453-5.339-3.453-8.229c0-3.224,2.436-6.211,5.88-6.211c0.153,0,0.31,0.018,0.459,0.025
		C217.303,182.253,208.984,178.771,199.851,178.771z M230.624,196.994c0.15,1.115,0.256,2.337,0.256,3.629
		c0,3.561-0.683,7.545-2.684,12.549l-10.709,30.977c10.428-6.08,17.431-17.369,17.431-30.312
		C234.917,207.738,233.361,201.99,230.624,196.994z M167.802,199.55c-1.946,4.362-3.016,9.201-3.016,14.287
		c0,13.886,8.055,25.879,19.756,31.563L167.802,199.55z M200.465,216.902l-10.53,30.595c3.145,0.925,6.475,1.405,9.916,1.405
		c4.086,0,8.01-0.687,11.655-1.969c-0.093-0.149-0.186-0.313-0.256-0.485L200.465,216.902z"/>
	<path fill="#FFD048" d="M347.422,56.535c-2.422,0-4.493,1.482-5.367,3.59h-9.381c-0.847-2.045-2.828-3.486-5.158-3.57l-1.511-4.045
		h23.875l13.411-20.785h-45.049l-2.581-6.914h-8.916c-1.226,0-2.22,0.994-2.22,2.221c0,1.227,0.994,2.221,2.22,2.221h5.835
		l10.775,28.855c-1.139,1.061-1.858,2.561-1.858,4.238c0,3.209,2.601,5.811,5.812,5.811c2.42,0,4.493-1.484,5.365-3.592h9.381
		c0.874,2.107,2.945,3.592,5.367,3.592c3.21,0,5.811-2.602,5.811-5.811C353.232,59.135,350.632,56.535,347.422,56.535z"/>
	<g>
		<circle fill="#C7C7C7" cx="420.832" cy="234.521" r="2.5"/>
		<circle fill="#808080" cx="420.832" cy="234.522" r="2.1"/>
		<path fill="#003D5E" d="M517.811,363.766c0,5.198-4.213,9.409-9.409,9.409H333.266c-5.195,0-9.41-4.211-9.41-9.409V238.302
			c0-5.194,4.215-9.409,9.41-9.409H508.4c5.196,0,9.409,4.215,9.409,9.409L517.811,363.766L517.811,363.766z"/>
		<path fill="#969696" d="M516.279,362.775c0,5.115-4.146,9.262-9.263,9.262H334.648c-5.115,0-9.263-4.146-9.263-9.262V239.293
			c0-5.113,4.146-9.262,9.263-9.262h172.368c5.115,0,9.263,4.146,9.263,9.262V362.775L516.279,362.775z"/>
		<path fill="#EDEDED" d="M308.947,355.438v8.328c0,5.198,4.859,9.409,10.854,9.409h202.062c5.994,0,10.854-4.211,10.854-9.409
			v-8.328H308.947z"/>
		<path fill="#003454" d="M309.209,365.781c1.064,4.225,5.398,7.394,10.594,7.394h202.062c5.194,0,9.526-3.169,10.592-7.394H309.209
			z"/>
		<polygon fill="#D4F6F4" points="507.758,348.379 333.908,348.379 336.277,242.541 505.387,242.541 		"/>
		<g>
			<path fill="#C7C7C7" d="M317.307,360.549c0,1.043-0.742,1.89-1.658,1.89c-0.914,0-1.655-0.847-1.655-1.89
				c0-1.04,0.741-1.885,1.655-1.885C316.564,358.664,317.307,359.509,317.307,360.549z"/>
			<path fill="#666666" d="M316.877,360.549c0,0.773-0.549,1.399-1.229,1.399c-0.679,0-1.228-0.626-1.228-1.399
				c0-0.77,0.55-1.396,1.228-1.396C316.328,359.151,316.877,359.779,316.877,360.549z"/>
		</g>
		<g>
			<path fill="#C7C7C7" d="M322.506,360.549c0,1.043-0.742,1.89-1.658,1.89s-1.656-0.847-1.656-1.89c0-1.04,0.74-1.885,1.656-1.885
				S322.506,359.509,322.506,360.549z"/>
			<path fill="#666666" d="M322.076,360.549c0,0.773-0.549,1.399-1.229,1.399c-0.679,0-1.228-0.626-1.228-1.399
				c0-0.77,0.549-1.396,1.228-1.396C321.527,359.151,322.076,359.779,322.076,360.549z"/>
		</g>
		<g>
			<path fill="#C7C7C7" d="M327.705,360.549c0,1.043-0.742,1.89-1.658,1.89s-1.658-0.847-1.658-1.89c0-1.04,0.742-1.885,1.658-1.885
				S327.705,359.509,327.705,360.549z"/>
			<path fill="#666666" d="M327.275,360.549c0,0.773-0.551,1.399-1.229,1.399c-0.678,0-1.229-0.626-1.229-1.399
				c0-0.77,0.552-1.396,1.229-1.396C326.725,359.152,327.275,359.779,327.275,360.549z"/>
		</g>
	</g>
	<g>
		<circle fill="#FF1D25" cx="108.684" cy="92.884" r="22.625"/>
		<path fill="#EEEEEE" d="M115.436,80.345c-6.287,0-6.752,3.842-6.752,3.842s-0.467-3.842-6.752-3.842
			c-6.287,0-8.498,7.217-6.869,11.525c1.629,4.307,13.621,15.248,13.621,15.248s11.99-10.941,13.619-15.248
			C123.932,87.562,121.721,80.345,115.436,80.345z"/>
	</g>
	<g>
		<circle fill="#0094C6" cx="265.905" cy="150.357" r="25.251"/>
		<path fill="#FFFFFF" d="M277.88,151.424c1.288-1.279,0.893-3.877-1.337-3.877l-5.87,0.004c0.224-1.238,0.549-3.303,0.534-3.492
			c-0.124-1.842-1.298-4.086-1.346-4.176c-0.215-0.402-1.298-0.941-2.386-0.707c-1.404,0.301-1.553,1.197-1.543,1.445
			c0,0,0.058,2.453,0.066,3.107c-0.673,1.475-2.991,5.361-3.694,5.656c-0.171-0.1-0.356-0.152-0.558-0.152h-7.412
			c-0.63,0-1.136,0.506-1.136,1.137v10.242c0.043,0.553,0.516,0.982,1.068,0.982h6.659c0.586,0,1.068-0.477,1.068-1.068v-0.338
			c0,0,0.249-0.02,0.358,0.051c0.429,0.273,0.959,0.617,1.646,0.617h9.938c3.713,0,3.316-3.299,2.978-3.748
			c0.626-0.682,1.012-1.889,0.482-2.84C277.808,153.834,278.524,152.65,277.88,151.424L277.88,151.424z M260.697,160.525h-6.435
			v-10.223h6.435V160.525z M276.147,151.338l-0.058,0.252c1.708,0.488,0.797,2.459-0.43,2.588l-0.063,0.252
			c1.643,0.416,0.86,2.449-0.425,2.588l-0.062,0.252c1.341,0.221,1.017,2.506-1.012,2.506l-10.109,0.006
			c-0.711,0-1.359-0.816-1.885-0.816h-0.459V151.1c0.568-0.359,1.271-0.816,1.661-1.146c0.735-0.629,3.751-5.504,3.751-6.115
			c0-0.609-0.061-3.25-0.061-3.25s0.586-0.764,1.908-0.205c0,0,1.112,2.086,1.227,3.748c0,0-0.501,3.416-0.768,4.49h7.002
			C278.09,148.625,277.761,151.084,276.147,151.338L276.147,151.338z"/>
	</g>
	<path fill="#B4ECFA" d="M395.232,138.493c-12.758,0-23.103,10.343-23.103,23.1c0,12.76,10.345,23.102,23.103,23.102
		c12.757,0,23.1-10.342,23.1-23.102C418.332,148.836,407.989,138.493,395.232,138.493z M409.896,169.46
		c0.237,2.443-2.107,4.593-5.235,4.897c-3.13,0.305-5.856-1.472-6.095-3.917c-0.237-2.443,1.939-4.691,5.067-4.996
		c0.99-0.096,1.615-0.007,2.615,0.263v-12.015l-15,2.145V170.5h0.626c0.007,0,0.018,0.249,0.021,0.29
		c0.237,2.445-2.106,4.758-5.236,5.063c-3.128,0.303-5.857-1.39-6.094-3.835c-0.238-2.443,1.939-4.648,5.068-4.953
		c0.988-0.096,1.614,0.033,2.614,0.302V150.5h0.334l20.971-3.065l-0.305-0.219v0.002l0.01-0.002l-0.01,0.074v22.21h0.625
		C409.882,169.5,409.891,169.419,409.896,169.46z"/>
	<path fill="#83D9EE" d="M118.74,275.48v-8.203h-4.105c-0.354-1.301-0.861-2.532-1.52-3.676l2.898-2.897l-5.803-5.804l-2.898,2.9
		c-1.143-0.656-2.375-1.168-3.676-1.52v-4.105h-8.203v4.105c-1.301,0.352-2.533,0.863-3.678,1.52l-2.898-2.9l-5.801,5.804l2.9,2.897
		c-0.658,1.144-1.168,2.375-1.52,3.676h-4.105v8.203h4.105c0.352,1.304,0.861,2.535,1.52,3.679l-2.9,2.897l5.801,5.803l2.898-2.899
		c1.146,0.656,2.377,1.166,3.678,1.521v4.104h8.203v-4.104c1.301-0.354,2.533-0.863,3.676-1.521l2.898,2.899l5.803-5.803
		l-2.898-2.897c0.658-1.144,1.166-2.375,1.52-3.679H118.74L118.74,275.48z M99.535,280.081c-4.805,0-8.701-3.896-8.701-8.699
		c0-4.807,3.896-8.7,8.701-8.7c4.805,0,8.699,3.895,8.699,8.7S104.34,280.081,99.535,280.081z"/>
	<path fill="#83D9EE" d="M445.186,69.788v-8.203h-4.104c-0.354-1.301-0.863-2.533-1.521-3.676l2.9-2.898l-5.803-5.803l-2.898,2.9
		c-1.145-0.656-2.375-1.168-3.678-1.52v-4.105h-8.203v4.105c-1.299,0.352-2.533,0.863-3.676,1.52l-2.898-2.9l-5.801,5.803
		l2.898,2.898c-0.658,1.143-1.166,2.375-1.521,3.676h-4.104v8.203h4.104c0.354,1.303,0.861,2.535,1.521,3.678l-2.898,2.898
		l5.801,5.803l2.898-2.9c1.145,0.656,2.377,1.166,3.676,1.52v4.104h8.203v-4.104c1.303-0.354,2.533-0.863,3.678-1.52l2.898,2.9
		l5.803-5.803l-2.9-2.898c0.658-1.143,1.168-2.375,1.521-3.678H445.186z M425.982,74.388c-4.806,0-8.701-3.895-8.701-8.699
		c0-4.807,3.896-8.701,8.701-8.701c4.803,0,8.698,3.895,8.698,8.701C434.682,70.493,430.785,74.388,425.982,74.388z"/>
	<g>
		<path fill="#C9C9C9" stroke="#000000" stroke-width="0.25" stroke-miterlimit="10" d="M301.75,367.389
			c0,2.974-2.205,6.611-5.157,6.611H159.896c-2.952,0-6.146-3.639-6.146-6.611v-88.621c0-2.974,3.194-3.768,6.146-3.768h136.696
			c2.952,0,5.157,0.794,5.157,3.768L301.75,367.389L301.75,367.389z"/>
		<circle fill="none" stroke="#000000" stroke-width="0.25" stroke-miterlimit="10" cx="163.174" cy="322.544" r="1.511"/>
		<circle fill="none" stroke="#000000" stroke-width="0.25" stroke-miterlimit="10" cx="294.027" cy="322.544" r="3.663"/>
		<rect x="168.25" y="281.5" fill="#D4F6F4" width="119" height="86"/>
	</g>
	<g>
		<g>
			<path fill="#B0B0B0" stroke="#000000" stroke-width="0.25" stroke-miterlimit="10" d="M144.816,369.313
				c0,2.006-1.625,3.631-3.631,3.631h-35.371c-2.004,0-3.629-1.625-3.629-3.631v-75.1c0-2.004,1.625-3.631,3.629-3.631h35.371
				c2.006,0,3.631,1.627,3.631,3.631V369.313z"/>
			<path fill="#FBFAFF" d="M130.387,294.178c0,0.29-0.234,0.524-0.523,0.524h-12.725c-0.291,0-0.525-0.234-0.525-0.524l0,0
				c0-0.289,0.234-0.523,0.525-0.523h12.725C130.152,293.652,130.387,293.889,130.387,294.178L130.387,294.178z"/>
			<rect x="105.262" y="296.538" fill="#D4F6F4" width="36.477" height="65.461"/>
			<polygon fill="#D4F6F4" points="141.738,361.999 105.262,361.999 141.738,296.538 			"/>
			<g>
				<g>
					<path d="M123.5,364.232c1.664,0,3.014,1.349,3.014,3.013s-1.35,3.013-3.014,3.013s-3.012-1.349-3.012-3.013
						S121.836,364.232,123.5,364.232 M123.5,363.982c-1.798,0-3.262,1.464-3.262,3.263s1.463,3.263,3.262,3.263
						c1.8,0,3.264-1.464,3.264-3.263S125.3,363.982,123.5,363.982L123.5,363.982z"/>
				</g>
			</g>
		</g>
	</g>
	<g>
		<path fill="#F3E01E" d="M476.391,199.27c-9.824,0-19.649,0-29.476,0c-0.601,0-0.603,0-0.603-0.606c0-19.652,0-39.303,0-58.954
			c0-0.589,0.002-0.589,0.575-0.589c19.666,0,39.332,0,58.999,0c0.577,0,0.577,0,0.577,0.586c0.001,19.651,0.001,39.303,0,58.954
			c0,0.611,0,0.611-0.597,0.611C496.042,199.27,486.217,199.27,476.391,199.27z"/>
		<path fill="#050708" d="M492.77,194.551c-3.479-0.023-6.291-0.832-8.604-2.996c-0.78-0.73-1.403-1.588-1.926-2.521
			c-0.128-0.23-0.069-0.325,0.142-0.445c1.361-0.78,2.72-1.567,4.068-2.369c0.23-0.137,0.319-0.071,0.443,0.125
			c0.701,1.104,1.545,2.075,2.767,2.612c1.636,0.717,3.311,0.834,4.948,0.035c1.826-0.891,2.036-3.136,0.438-4.393
			c-0.903-0.71-1.971-1.119-3.011-1.574c-1.504-0.66-3.021-1.284-4.425-2.158c-4.053-2.522-4.385-6.853-3.313-9.702
			c0.972-2.579,2.977-3.997,5.6-4.53c2.339-0.476,4.651-0.33,6.818,0.789c1.439,0.743,2.461,1.926,3.29,3.292
			c0.114,0.187,0.081,0.264-0.099,0.377c-1.326,0.841-2.646,1.689-3.962,2.546c-0.187,0.121-0.268,0.103-0.375-0.087
			c-0.223-0.39-0.48-0.757-0.793-1.083c-1.012-1.055-2.253-1.346-3.619-0.979c-2.165,0.582-2.107,3.083-1.101,4.065
			c0.58,0.566,1.278,0.932,1.998,1.264c1.735,0.801,3.538,1.456,5.193,2.429c1.423,0.837,2.698,1.83,3.548,3.286
			c1.391,2.384,1.51,6.805-0.942,9.306c-1.41,1.439-3.156,2.174-5.099,2.516C493.974,194.492,493.185,194.566,492.77,194.551z"/>
		<path fill="#050708" d="M479.071,176.935c0,3.234,0.015,6.468-0.009,9.702c-0.009,1.142-0.226,2.261-0.649,3.329
			c-0.709,1.782-1.918,3.124-3.71,3.813c-2.939,1.128-5.885,1.097-8.739-0.318c-1.664-0.824-2.833-2.169-3.676-3.81
			c-0.109-0.212-0.103-0.323,0.122-0.457c1.361-0.81,2.718-1.631,4.064-2.463c0.242-0.149,0.348-0.107,0.474,0.131
			c0.313,0.595,0.686,1.154,1.146,1.654c1.092,1.188,2.906,1.15,3.986,0.622c0.652-0.319,0.976-0.908,1.152-1.581
			c0.125-0.479,0.178-0.969,0.178-1.466c-0.002-6.289,0.004-12.578-0.012-18.866c-0.001-0.421,0.118-0.514,0.519-0.508
			c1.587,0.022,3.175,0.021,4.762,0c0.348-0.004,0.416,0.097,0.415,0.425c-0.013,3.265-0.008,6.528-0.008,9.793
			C479.081,176.935,479.076,176.935,479.071,176.935z"/>
	</g>
	<g>
		<path fill="#0071BB" d="M184.729,35.015c0-0.547,0-1.095,0-1.643c0.439-0.375,0.974-0.294,1.483-0.295
			c3.647-0.007,7.294-0.004,10.942-0.004c19.665,0,39.33-0.001,58.995,0.005c0.595,0,1.227-0.133,1.756,0.294
			c0,0.244,0,0.487,0,0.73c-0.215,1.592-0.158,3.2-0.265,4.798c-0.166,2.456-0.435,4.901-0.637,7.352
			c-0.253,3.088-0.555,6.171-0.828,9.257c-0.338,3.812-0.701,7.622-1.021,11.435c-0.321,3.814-0.698,7.623-1.008,11.438
			c-0.236,2.906-0.53,5.808-0.784,8.714c-0.272,3.116-0.572,6.231-0.839,9.348c-0.307,3.571-0.66,7.139-0.945,10.711
			c-0.066,0.824-0.569,1.205-1.317,1.417c-3.568,1.015-7.148,1.984-10.722,2.978c-5.215,1.448-10.433,2.884-15.641,4.357
			c-0.822,0.232-1.678,0.237-2.489,0.494c-0.122,0-0.244,0-0.365,0c-7.14-1.621-14.121-3.83-21.188-5.722
			c-2.524-0.676-5.031-1.417-7.558-2.082c-0.823-0.217-1.238-0.627-1.316-1.486c-0.229-2.509-0.452-5.019-0.677-7.527
			c-0.339-3.78-0.693-7.558-1.015-11.338c-0.267-3.146-0.57-6.289-0.828-9.435c-0.241-2.934-0.534-5.865-0.792-8.798
			c-0.27-3.084-0.557-6.167-0.832-9.25c-0.281-3.145-0.573-6.288-0.842-9.433c-0.259-3.024-0.516-6.049-0.815-9.069
			C184.941,39.85,184.969,37.424,184.729,35.015z"/>
		<path d="M226.883,13.117c0,1.458-0.016,2.917,0.009,4.375c0.008,0.433-0.108,0.574-0.554,0.563c-1.18-0.03-2.362-0.01-3.843-0.01
			c0.954,0.917,1.699,1.733,2.546,2.424c1.435,1.173,2.153,2.577,1.855,4.465c-0.112,0.707,0.208,1.671-0.159,2.097
			c-0.386,0.448-1.367,0.128-2.087,0.132c-2.856,0.015-5.711-0.008-8.567,0.019c-0.539,0.005-0.741-0.094-0.714-0.685
			c0.054-1.152,0.052-2.31,0.001-3.462c-0.027-0.617,0.108-0.844,0.776-0.81c1.172,0.061,2.349,0.017,3.642,0.017
			c-1.397-1.291-2.688-2.517-4.026-3.69c-0.276-0.243-0.388-0.435-0.385-0.786c0.018-1.549,0.008-3.099,0.008-4.648
			C219.219,13.117,223.051,13.117,226.883,13.117z"/>
		<path d="M243.307,13.117c0,1.428-0.022,2.857,0.012,4.285c0.012,0.513-0.13,0.671-0.65,0.654
			c-1.149-0.039-2.301-0.012-3.554-0.012c1.102,1.534,2.457,2.718,3.721,3.981c0.35,0.349,0.496,0.693,0.481,1.183
			c-0.034,1.124-0.037,2.25,0.001,3.373c0.017,0.495-0.152,0.599-0.614,0.596c-3.435-0.018-6.869-0.02-10.303,0.001
			c-0.483,0.003-0.614-0.134-0.602-0.608c0.032-1.245,0.033-2.493-0.001-3.738c-0.013-0.482,0.133-0.616,0.607-0.603
			c1.171,0.033,2.343,0.011,3.785,0.011c-1.579-1.169-2.646-2.521-3.96-3.598c-0.345-0.283-0.423-0.509-0.422-0.875
			c0.004-1.55,0.002-3.101,0.002-4.65C235.642,13.117,239.475,13.117,243.307,13.117z"/>
		<path d="M210.825,13.117c0,1.429-0.023,2.858,0.012,4.287c0.013,0.516-0.136,0.662-0.652,0.652
			c-1.763-0.031-3.527,0.008-5.29-0.024c-0.517-0.009-0.673,0.137-0.651,0.653c0.041,0.971,0.042,1.946,0,2.917
			c-0.022,0.521,0.141,0.66,0.654,0.651c1.763-0.031,3.527,0.008,5.291-0.024c0.52-0.01,0.664,0.142,0.649,0.655
			c-0.036,1.246-0.031,2.493-0.001,3.739c0.01,0.444-0.129,0.557-0.562,0.555c-3.466-0.017-6.933-0.029-10.398,0.007
			c-0.678,0.007-0.544-0.379-0.544-0.75c-0.002-4.439-0.002-8.879-0.002-13.318C203.161,13.117,206.993,13.117,210.825,13.117z"/>
		<path fill="#29AAE1" d="M221.228,47.936c0-2.493,0.019-4.985-0.015-7.478c-0.009-0.653,0.139-0.898,0.851-0.896
			c9.423,0.023,18.847,0.021,28.271,0.003c0.63-0.001,0.893,0.173,0.823,0.82c-0.186,1.737-0.364,3.475-0.52,5.215
			c-0.149,1.653-0.252,3.31-0.4,4.963c-0.223,2.491-0.472,4.98-0.7,7.471c-0.14,1.532-0.255,3.066-0.393,4.599
			c-0.23,2.551-0.515,5.099-0.691,7.653c-0.108,1.566-0.246,3.128-0.398,4.69c-0.252,2.58-0.489,5.161-0.713,7.743
			c-0.146,1.684-0.238,3.372-0.391,5.055c-0.215,2.37-0.512,4.733-0.681,7.106c-0.113,1.597-0.298,3.187-0.388,4.782
			c-0.054,0.966-0.276,1.914-0.227,2.893c0.025,0.496-0.233,0.82-0.828,0.98c-5.186,1.4-10.357,2.852-15.533,4.287
			c-2.355,0.653-4.714,1.292-7.063,1.966c-0.716,0.205-1.052,0.201-1.029-0.746c0.069-2.825,0.025-5.653,0.026-8.48
			c0.026-0.047,0.053-0.096,0.078-0.144c0.219-0.234,0.516-0.312,0.809-0.393c5.509-1.528,11.017-3.06,16.525-4.589
			c1.208-0.335,1.185-0.327,1.311-1.588c0.451-4.474,0.793-8.957,1.204-13.434c0.376-4.115,0.705-8.234,1.08-12.349
			c0.055-0.604-0.178-0.847-0.757-0.838c-0.273,0.004-0.547-0.004-0.821-0.004c-5.687,0-11.374,0.001-17.061-0.002
			c-0.484,0-0.975,0.053-1.447-0.104c-0.485-0.356-0.051-0.483,0.177-0.609c0.85-0.471,1.756-0.824,2.643-1.214
			c5.741-2.53,11.456-5.118,17.201-7.637c0.377-0.166,0.828-0.262,0.961-0.751c0.278-2.599,0.457-5.204,0.703-7.802
			c0.058-0.613-0.185-0.839-0.753-0.839c-0.304,0-0.608-0.006-0.912-0.006c-6.41,0-12.819,0.001-19.229-0.002
			c-0.483,0-0.974,0.047-1.448-0.103C221.381,48.106,221.293,48.034,221.228,47.936z"/>
		<path fill="#E5E5E5" d="M243.329,57.29c-1.899,1.076-3.951,1.824-5.928,2.731c-2.388,1.096-4.815,2.105-7.214,3.18
			c-2.744,1.229-5.474,2.489-8.21,3.735c-0.251,0.531-0.291,1.095-0.288,1.674c0.008,2.109,0.007,4.219,0,6.329
			c-0.001,0.419,0.04,0.848-0.174,1.239c-0.074,0.107-0.172,0.142-0.296,0.106c-6.494-0.01-12.988-0.036-19.482-0.009
			c-0.861,0.003-1.127-0.14-1.172-1.1c-0.117-2.504-0.442-4.998-0.67-7.497c-0.022-0.25-0.141-0.548,0.147-0.749
			c0.704-0.202,1.421-0.279,2.154-0.279c5.764,0.006,11.528,0.005,17.291,0.002c1.419-0.001,1.44-0.023,1.443-1.404
			c0.004-2.001,0-4.004,0.002-6.006c0.001-0.486-0.018-0.977,0.294-1.397v-0.042c0.316-0.515,0.86-0.613,1.38-0.759
			c0.423-0.073,0.85-0.063,1.275-0.063c5.961-0.002,11.922-0.005,17.883,0.005C242.297,56.989,242.872,56.861,243.329,57.29z"/>
		<path fill="#E5E5E5" d="M221.228,100.561c-3.509-0.984-7.016-1.971-10.525-2.953c-2.625-0.734-5.25-1.474-7.884-2.176
			c-0.31-0.083-0.37-0.181-0.394-0.46c-0.171-2.03-0.348-4.059-0.545-6.086c-0.229-2.353-0.472-4.703-0.725-7.053
			c-0.077-0.713,0.022-1.074,0.924-1.042c2.307,0.081,4.618,0.027,6.927,0.027c1.633,0,1.543,0.006,1.661,1.619
			c0.126,1.726,0.213,3.46,0.494,5.176c0.068,0.416,0.255,0.584,0.578,0.671c2.976,0.799,5.955,1.588,8.936,2.372
			c0.172,0.045,0.363,0.02,0.545,0.027c0.093,0.081,0.16,0.178,0.203,0.293c0.208,1.712,0.056,3.433,0.091,5.149
			c0.022,1.085,0.013,2.171,0,3.257c-0.005,0.39,0.02,0.793-0.289,1.106L221.228,100.561z"/>
		<path fill="#E5E5E5" d="M221.228,57.313c-5.042-0.012-10.083-0.024-15.125-0.034c-2.035-0.004-4.071-0.031-6.105,0.015
			c-0.772,0.018-1.025-0.183-1.062-1.006c-0.115-2.54-0.323-5.079-0.7-7.597c-0.116-0.775,0.328-0.725,0.85-0.724
			c6.925,0.008,13.851,0.006,20.776,0.004c0.455,0,0.91-0.022,1.364-0.034l-0.004,0.074c0.196,0.175,0.264,0.413,0.264,0.656
			c0.002,2.785,0.126,5.572-0.063,8.356C221.385,57.137,221.319,57.233,221.228,57.313z"/>
		<path fill="#29AAE1" d="M221.232,90.838c-0.005-0.052-0.009-0.104-0.013-0.156c0-4.799,0-9.598,0-14.397
			c0.065-0.02,0.13-0.04,0.195-0.059c0.278-0.232,0.616-0.24,0.95-0.241c3.007-0.007,6.015-0.02,9.021,0.006
			c1.041,0.008,1.306,0.312,1.207,1.341c-0.313,3.231-0.545,6.47-0.849,9.702c-0.078,0.821-0.411,1.252-1.197,1.475
			c-2.776,0.786-5.563,1.534-8.339,2.322C221.887,90.921,221.558,91.014,221.232,90.838z"/>
		<path fill="#B2B2B2" d="M221.227,57.846c0,2.76-0.017,5.521,0.012,8.281c0.006,0.623-0.162,0.838-0.813,0.835
			c-6.794-0.027-13.589-0.026-20.384-0.032c1.911-0.844,3.816-1.703,5.735-2.528c3.079-1.323,6.167-2.626,9.252-3.935
			C217.094,59.591,219.161,58.72,221.227,57.846z"/>
		<path fill="#29AAE1" d="M222.3,57.29c-0.358,0.172-0.716,0.343-1.074,0.515c0-0.164,0.001-0.328,0.001-0.492l-0.005-0.074
			C221.594,57.008,221.956,56.968,222.3,57.29z"/>
		<path fill="#FEFEFE" d="M221.232,90.838c3.203-0.907,6.404-1.821,9.613-2.706c0.327-0.09,0.568-0.139,0.6-0.527
			c0.115-1.437,0.237-2.872,0.366-4.308c0.174-1.941,0.331-3.886,0.546-5.822c0.12-1.078,0.049-1.216-1.005-1.219
			c-3.313-0.009-6.626-0.02-9.939-0.03c-0.002-2.806-0.005-5.611-0.004-8.417c0-0.408-0.117-0.903,0.567-0.873
			c6.535,0.004,13.07,0.008,19.605,0.013c1.024,0.001,1.233,0.195,0.96,1.129c-0.267,0.913-0.196,1.849-0.293,2.766
			c-0.338,3.196-0.481,6.412-0.785,9.612c-0.192,2.032-0.368,4.064-0.553,6.096c-0.249,2.75-0.548,5.495-0.693,8.252
			c-0.03,0.57-0.413,0.61-0.766,0.709c-2.49,0.703-4.984,1.39-7.477,2.081c-3.494,0.968-6.988,1.938-10.483,2.901
			c-0.083,0.023-0.179-0.004-0.269-0.009C221.226,97.271,221.229,94.054,221.232,90.838z"/>
		<path fill="#FEFEFE" d="M222.3,57.29c-0.359-0.017-0.718-0.034-1.077-0.051c0-3.077,0-6.152,0-9.229
			c3.518-0.013,7.036-0.031,10.554-0.038c3.883-0.006,7.767,0.021,11.649-0.021c0.753-0.008,0.887,0.282,0.781,0.896
			c-0.204,1.182-0.281,2.374-0.367,3.569c-0.117,1.628-0.336,3.249-0.511,4.873C236.319,57.29,229.31,57.29,222.3,57.29z"/>
	</g>
	<g>
		<g>
			<g>
				<g>
					<path d="M71.056,152.723h3.676v3.632h3.362v-3.632h3.676v10.998h-3.675v-3.683h-3.363v3.683h-3.675L71.056,152.723
						L71.056,152.723z"/>
					<path d="M86.604,156.37h-3.235v-3.647h10.15v3.647H90.28v7.351h-3.676V156.37L86.604,156.37z"/>
					<path d="M95.129,152.723h3.833l2.358,3.864l2.355-3.864h3.833v10.998h-3.66v-5.451l-2.529,3.91h-0.063l-2.53-3.91v5.451h-3.597
						V152.723z"/>
					<path d="M109.338,152.723h3.677v7.363h5.169v3.635h-8.846V152.723z"/>
				</g>
			</g>
		</g>
		<g id="Guides_to_delete">
			<g>
				<polygon fill="#E34E26" points="70.855,227.704 65.581,168.54 123.512,168.54 118.231,227.708 94.532,234.277 				"/>
				<polygon fill="#EF662A" points="94.546,173.375 94.546,229.252 113.709,223.939 118.225,173.375 				"/>
				<polygon fill="#FFFFFF" points="76.372,180.632 78.329,202.577 103.479,202.577 102.635,211.988 94.537,214.178 86.455,211.991 
					85.915,205.948 78.631,205.948 79.672,217.598 94.535,221.727 109.418,217.598 111.413,195.32 84.965,195.32 84.301,187.89 
					112.048,187.89 112.071,187.89 112.721,180.632 				"/>
				<g>
					<polygon fill="#EBEBEB" points="94.546,180.632 76.372,180.632 78.329,202.577 94.546,202.577 94.546,195.32 84.965,195.32 
						84.301,187.89 94.546,187.89 					"/>
					<polygon fill="#EBEBEB" points="94.546,214.175 94.537,214.178 86.455,211.991 85.915,205.948 78.631,205.948 79.672,217.598 
						94.535,221.727 94.546,221.723 					"/>
				</g>
			</g>
		</g>
	</g>
	<g>
		
			<radialGradient id="SVGID_1_" cx="71.5176" cy="336.8105" r="48.4009" gradientTransform="matrix(1 0 0 -1 270.52 432.6934)" gradientUnits="userSpaceOnUse">
			<stop  offset="0" style="stop-color:#FFFFFF"/>
			<stop  offset="0.5" style="stop-color:#4C6B97"/>
			<stop  offset="1" style="stop-color:#231F20"/>
		</radialGradient>
		<ellipse fill="url(#SVGID_1_)" cx="356.766" cy="108.455" rx="36.859" ry="19.389"/>
		<ellipse fill="#6181B6" cx="356.766" cy="108.455" rx="35.42" ry="17.95"/>
		<g>
			<path fill="#FFFFFF" d="M363.939,114.257l1.758-9.042c0.396-2.041,0.066-3.563-0.979-4.525c-1.013-0.931-2.733-1.384-5.261-1.384
				h-3.043l0.871-4.48c0.031-0.169-0.012-0.343-0.12-0.477c-0.11-0.132-0.272-0.209-0.445-0.209h-4.2
				c-0.274,0-0.512,0.195-0.564,0.466l-1.865,9.6c-0.169-1.08-0.587-2.009-1.257-2.775c-1.229-1.41-3.179-2.125-5.791-2.125h-8.14
				c-0.275,0-0.514,0.196-0.564,0.467l-3.775,19.431c-0.035,0.169,0.011,0.343,0.119,0.476c0.11,0.133,0.272,0.21,0.445,0.21h4.232
				c0.274,0,0.512-0.196,0.564-0.466l0.914-4.7h3.148c1.654,0,3.043-0.18,4.128-0.533c1.11-0.361,2.129-0.973,3.028-1.814
				c0.728-0.668,1.326-1.416,1.791-2.222l-0.757,3.882c-0.032,0.169,0.013,0.344,0.121,0.477c0.109,0.133,0.273,0.21,0.444,0.21
				h4.199c0.276,0,0.513-0.196,0.565-0.466l2.072-10.666h2.881c1.228,0,1.589,0.245,1.687,0.35c0.088,0.096,0.273,0.434,0.066,1.499
				l-1.672,8.597c-0.032,0.169,0.014,0.344,0.122,0.477c0.108,0.133,0.271,0.21,0.442,0.21h4.268
				C363.65,114.723,363.887,114.527,363.939,114.257z M344.471,106.786c-0.263,1.354-0.761,2.322-1.477,2.874
				c-0.729,0.561-1.893,0.844-3.462,0.844h-1.876l1.355-6.98h2.426c1.781,0,2.5,0.381,2.789,0.7
				C344.627,104.668,344.711,105.554,344.471,106.786z"/>
			<path fill="#FFFFFF" d="M381.898,101.431c-1.231-1.41-3.181-2.125-5.793-2.125h-8.139c-0.273,0-0.513,0.196-0.564,0.467
				l-3.776,19.431c-0.032,0.169,0.013,0.343,0.122,0.476c0.107,0.133,0.271,0.21,0.443,0.21h4.232c0.274,0,0.512-0.196,0.564-0.466
				l0.914-4.7h3.149c1.654,0,3.042-0.18,4.128-0.533c1.108-0.361,2.129-0.973,3.028-1.814c0.751-0.689,1.367-1.464,1.836-2.301
				c0.467-0.835,0.802-1.769,0.997-2.772C383.523,104.827,383.141,102.851,381.898,101.431z M377.509,106.786
				c-0.263,1.354-0.762,2.322-1.478,2.874c-0.729,0.561-1.893,0.844-3.461,0.844h-1.877l1.357-6.98h2.424
				c1.781,0,2.5,0.381,2.789,0.7C377.664,104.668,377.748,105.554,377.509,106.786z"/>
		</g>
		<g>
			<path fill="#000004" d="M341.438,102.948c1.608,0,2.68,0.297,3.215,0.891c0.537,0.594,0.664,1.613,0.385,3.057
				c-0.293,1.503-0.855,2.577-1.691,3.22c-0.837,0.643-2.106,0.964-3.813,0.964h-2.574l1.58-8.132H341.438z M331.126,119.313h4.231
				l1.004-5.167h3.625c1.601,0,2.916-0.167,3.949-0.504c1.033-0.336,1.973-0.899,2.816-1.69c0.709-0.652,1.283-1.371,1.723-2.158
				c0.439-0.786,0.752-1.653,0.937-2.602c0.446-2.304,0.108-4.098-1.013-5.383c-1.123-1.285-2.909-1.928-5.357-1.928h-8.139
				L331.126,119.313z"/>
			<path fill="#000004" d="M352.52,94.716h4.2l-1.005,5.167h3.742c2.354,0,3.979,0.411,4.871,1.231
				c0.893,0.82,1.162,2.151,0.804,3.991l-1.757,9.042h-4.268l1.672-8.597c0.189-0.979,0.121-1.645-0.211-2.001
				c-0.329-0.356-1.031-0.534-2.106-0.534h-3.354l-2.164,11.132h-4.199L352.52,94.716z"/>
			<path fill="#000004" d="M374.477,102.948c1.607,0,2.679,0.297,3.215,0.891c0.535,0.594,0.664,1.613,0.384,3.057
				c-0.292,1.503-0.855,2.577-1.691,3.22c-0.835,0.643-2.106,0.964-3.813,0.964h-2.574l1.579-8.132H374.477z M364.163,119.313h4.231
				l1.004-5.167h3.625c1.602,0,2.916-0.167,3.949-0.504c1.033-0.336,1.973-0.899,2.817-1.69c0.709-0.652,1.283-1.371,1.724-2.158
				c0.438-0.786,0.75-1.653,0.936-2.602c0.447-2.304,0.109-4.098-1.014-5.383c-1.123-1.285-2.908-1.928-5.357-1.928h-8.139
				L364.163,119.313z"/>
		</g>
	</g>
	<g>
		
			<radialGradient id="SVGID_2_" cx="-888.6382" cy="328.7168" r="0.0719" gradientTransform="matrix(545.6736 0 0 528.3113 485228.4063 -173484.4375)" gradientUnits="userSpaceOnUse">
			<stop  offset="0" style="stop-color:#34364E;stop-opacity:0.98"/>
			<stop  offset="1" style="stop-color:#0C0824"/>
		</radialGradient>
		<path fill="url(#SVGID_2_)" d="M305.314,169.445h51.623v50.216h-51.623V169.445z"/>
		<path fill="#31C5F0" d="M305.314,169.445h51.623v50.216h-51.623V169.445z M302.968,222.008h56.316v-54.909h-56.316V222.008z
			 M340.936,189.625c-1.854,0-2.487,0.938-2.487,1.713c0,0.845,0.423,1.432,2.909,2.723c3.685,1.783,4.834,3.496,4.834,6.008
			c0,3.755-2.862,5.771-6.734,5.771c-2.041,0-3.801-0.422-4.811-1.009c-0.164-0.07-0.188-0.188-0.188-0.375v-3.45
			c0-0.234,0.117-0.305,0.282-0.188c1.478,0.962,3.167,1.385,4.716,1.385c1.854,0,2.629-0.773,2.629-1.831
			c0-0.845-0.54-1.597-2.91-2.815c-3.332-1.596-4.717-3.215-4.717-5.913c0-3.027,2.37-5.538,6.478-5.538
			c2.019,0,3.426,0.306,4.199,0.657c0.188,0.117,0.234,0.305,0.234,0.469v3.215c0,0.188-0.117,0.306-0.352,0.234
			C343.984,190.024,342.46,189.625,340.936,189.625L340.936,189.625z M320.755,192.418c0.539,0.047,0.962,0.047,1.9,0.047
			c2.745,0,5.325-0.962,5.325-4.693c0-2.98-1.854-4.481-4.975-4.481c-0.938,0-1.83,0.046-2.252,0.07L320.755,192.418
			L320.755,192.418z M316.578,179.958c0-0.165,0.328-0.282,0.516-0.282c1.502-0.07,3.731-0.117,6.055-0.117
			c6.5,0,9.033,3.566,9.033,8.119c0,5.96-4.316,8.518-9.619,8.518c-0.893,0-1.196-0.047-1.83-0.047v9.012
			c0,0.188-0.07,0.281-0.282,0.281h-3.591c-0.188,0-0.281-0.069-0.281-0.281V179.958L316.578,179.958z"/>
	</g>
</g>
</svg>
