<?xml version="1.0" encoding="utf-8"?>
<!-- Generator: Adobe Illustrator 16.0.0, SVG Export Plug-In . SVG Version: 6.00 Build 0)  -->
<!DOCTYPE svg PUBLIC "-//W3C//DTD SVG 1.1//EN" "http://www.w3.org/Graphics/SVG/1.1/DTD/svg11.dtd">
<svg version="1.1" id="Layer_1" xmlns="http://www.w3.org/2000/svg" xmlns:xlink="http://www.w3.org/1999/xlink" x="0px" y="0px"
	 width="186px" height="148.665px" viewBox="20.167 15.502 186 148.665" enable-background="new 20.167 15.502 186 148.665"
	 xml:space="preserve">
<g>
	<g>
		<g>
			<polygon fill="#F7F2E0" points="42.516,120.57 35.531,120.57 27.632,149.488 30.792,149.488 37.943,123.549 40.103,123.549 
				44.469,139.283 36.184,139.283 35.394,141.834 45.177,141.834 47.254,149.488 50.414,149.488 			"/>
		</g>
		<path fill="#F7F2E0" d="M68.206,131.85c0,0-4.614-0.666-7.275-0.666c-2.578,0-4.531,0.709-4.531,3.162
			c0,1.953,0.998,2.492,5.404,3.24c5.197,0.875,7.151,1.914,7.151,5.947c0,4.861-3.076,6.484-8.065,6.484
			c-2.66,0-7.317-0.791-7.317-0.791l0.166-2.701c0,0,4.74,0.707,6.86,0.707c3.409,0,5.237-0.748,5.237-3.574
			c0-2.164-1.081-2.705-5.611-3.412c-4.698-0.746-6.942-1.621-6.942-5.777c0-4.572,3.7-6.07,7.483-6.07
			c3.117,0,7.524,0.791,7.524,0.791L68.206,131.85z"/>
		<path fill="#F7F2E0" d="M87.537,131.85c0,0-4.615-0.666-7.275-0.666c-2.579,0-4.533,0.709-4.533,3.162
			c0,1.953,0.999,2.492,5.406,3.24c5.195,0.875,7.149,1.914,7.149,5.947c0,4.861-3.076,6.484-8.065,6.484
			c-2.661,0-7.316-0.791-7.316-0.791l0.166-2.701c0,0,4.74,0.707,6.859,0.707c3.408,0,5.237-0.748,5.237-3.574
			c0-2.164-1.08-2.705-5.612-3.412c-4.698-0.746-6.942-1.621-6.942-5.777c0-4.572,3.7-6.07,7.482-6.07
			c3.118,0,7.524,0.791,7.524,0.791L87.537,131.85z"/>
		<path fill="#F7F2E0" d="M108.405,146.898l0.083,2.453c0,0-4.739,0.666-8.107,0.666c-6.194,0-8.232-3.617-8.232-10.684
			c0-7.9,3.408-10.936,8.688-10.936c5.53,0,8.356,2.912,8.356,9.729l-0.166,2.371h-13.72c0,4.447,1.371,6.775,5.446,6.775
			C103.874,147.273,108.405,146.898,108.405,146.898z M106.077,138.002c0-5.154-1.581-6.982-5.239-6.982
			c-3.534,0-5.529,1.953-5.57,6.982H106.077z"/>
		<path fill="#F7F2E0" d="M114.059,149.602v-20.787h3.076v1.455c0,0,3.117-1.871,6.07-1.871c2.783,0,4.322,0.623,5.404,2.121
			c0,0,3.699-2.121,7.398-2.121c5.654,0,7.027,2.703,7.027,10.227v10.977h-3.117v-10.893c0-5.486-0.625-7.523-4.365-7.523
			c-3.078,0-5.861,1.537-5.861,1.537c0.375,0.957,0.539,3.574,0.539,6.07v10.809h-3.119v-10.725c0-5.736-0.578-7.691-4.361-7.691
			c-2.953,0-5.574,1.537-5.574,1.537v16.879H114.059L114.059,149.602z"/>
		<path fill="#F7F2E0" d="M165.564,138.875c0,8.273-2.246,11.143-9.811,11.143c-2.494,0-6.941-0.457-6.941-0.457v-29.809h3.076
			v10.104c0,0,3.158-1.457,6.109-1.457C163.65,128.398,165.564,131.393,165.564,138.875z M162.406,138.875
			c0-5.361-1.082-7.689-4.74-7.689c-2.869,0-5.779,1.205-5.779,1.205v14.633c0,0,2.703,0.207,3.824,0.207
			C161.406,147.23,162.406,144.695,162.406,138.875z"/>
		<path fill="#F7F2E0" d="M170.926,119.75h3.117v29.85h-3.117V119.75z"/>
		<path fill="#F7F2E0" d="M181.443,128.814l5.195,18.084h1.373l5.238-18.084h3.117l-8.646,30.016h-3.117l2.701-9.23h-3.076
			l-5.902-20.785H181.443L181.443,128.814z"/>
	</g>
	<path fill="#F7F2E0" d="M63.648,106.656c0.14-0.201,0.292-0.391,0.413-0.6C75.257,86.7,86.45,67.341,97.644,47.981
		c4.662-8.063,9.317-16.127,13.976-24.191c0.112-0.199,0.202-0.413,0.305-0.619c0.033,0,0.065,0,0.1,0
		c5.572,9.644,11.148,19.289,16.718,28.935c8.957,15.511,17.914,31.023,26.879,46.534c1.471,2.545,2.951,5.082,4.426,7.623
		c0.09,0.148,0.174,0.307,0.307,0.543c-0.318,0-0.545,0-0.773,0c-31.729,0-63.458,0-95.19,0.004c-0.246,0-0.494,0.027-0.74,0.047
		C63.648,106.789,63.648,106.723,63.648,106.656z M82.348,82.423c0.025,0.028,0.05,0.052,0.077,0.081
		c13.304-11.167,26.608-22.328,39.925-33.501c-3.459-5.989-6.889-11.929-10.355-17.929C102.079,48.247,92.214,65.336,82.348,82.423z
		 M123.885,51.666c-0.023,0.011-0.051,0.024-0.076,0.037c2.992,16.974,5.986,33.947,8.977,50.921c6.852,0,13.641,0,20.52,0
		C143.477,85.601,133.68,68.632,123.885,51.666z M70.685,102.627c19.31,0,38.511,0,57.715,0c0.004-0.027,0.014-0.051,0.02-0.08
		c-15.887-5.781-31.771-11.565-47.674-17.352C77.39,91.011,74.056,96.785,70.685,102.627z M120.607,55.432
		c-8.09,6.789-16.096,13.506-24.103,20.226c0.016,0.026,0.031,0.049,0.049,0.077c8.643-3.144,17.286-6.291,25.967-9.451
		C121.885,62.68,121.256,59.106,120.607,55.432z M87.174,83.487c9.582,3.488,19.093,6.95,28.599,10.409
		c0.016-0.031,0.031-0.061,0.049-0.09c-6.825-5.729-13.649-11.457-20.473-17.18C92.615,78.92,89.933,81.173,87.174,83.487z
		 M122.932,68.636c-0.035,0.001-0.074,0.006-0.109,0.01c-1.535,8.706-3.07,17.41-4.611,26.14c3.33,1.211,6.617,2.408,9.975,3.627
		C126.424,88.418,124.68,78.526,122.932,68.636z M119.375,70.666c-4.15,1.51-8.183,2.98-12.216,4.447
		c0.008,0.024,0.019,0.049,0.03,0.071c3.793,0,7.586,0,11.396,0C118.844,73.701,119.098,72.251,119.375,70.666z M110.932,85.727
		c0.028-0.02,0.058-0.036,0.086-0.057c-0.456-0.781-0.908-1.568-1.36-2.351c-1.38-2.383-2.756-4.764-4.146-7.14
		c-0.082-0.141-0.312-0.334-0.407-0.303c-1.361,0.467-2.708,0.967-4.134,1.489C104.332,80.185,107.63,82.956,110.932,85.727z
		 M115.977,89.956c0.762-4.312,1.506-8.529,2.248-12.747c-0.033-0.015-0.064-0.029-0.1-0.04c-1.889,3.265-3.783,6.526-5.689,9.818
		C113.611,87.974,114.762,88.938,115.977,89.956z M112.128,82.556c1.043-1.787,2.034-3.476,3.047-5.211c-2.063,0-4.015,0-6.044,0
		C110.134,79.09,111.109,80.779,112.128,82.556z"/>
</g>
</svg>
