<?xml version="1.0" encoding="utf-8"?>
<!-- Generator: Adobe Illustrator 16.0.0, SVG Export Plug-In . SVG Version: 6.00 Build 0)  -->
<!DOCTYPE svg PUBLIC "-//W3C//DTD SVG 1.1//EN" "http://www.w3.org/Graphics/SVG/1.1/DTD/svg11.dtd">
<svg version="1.1" id="Layer_1" xmlns="http://www.w3.org/2000/svg" xmlns:xlink="http://www.w3.org/1999/xlink" x="0px" y="0px"
	 width="595.28px" height="100.897px" viewBox="0 0 595.28 100.897" enable-background="new 0 0 595.28 100.897"
	 xml:space="preserve">
<g>
	<g>
		<g>
			<polygon fill="#FFFFFF" points="203.601,11.504 187.412,11.504 169.102,78.504 176.426,78.504 193.001,18.504 198.011,18.504 
				208.131,54.504 188.925,54.504 187.096,61.504 209.768,61.504 214.586,78.504 221.911,78.504 			"/>
		</g>
		<path fill="#FFFFFF" d="M263.152,38.287c0,0-10.695-1.542-16.863-1.542c-5.976,0-10.504,1.638-10.504,7.324
			c0,4.528,2.313,5.782,12.527,7.515c12.045,2.025,16.575,4.436,16.575,13.781c0,11.274-7.132,15.033-18.695,15.033
			c-6.167,0-16.961-1.832-16.961-1.832l0.387-6.263c0,0,10.984,1.638,15.9,1.638c7.9,0,12.141-1.733,12.141-8.286
			c0-5.011-2.504-6.265-13.009-7.903c-10.89-1.732-16.092-3.758-16.092-13.394c0-10.601,8.575-14.07,17.346-14.07
			c7.227,0,17.441,1.832,17.441,1.832L263.152,38.287z"/>
		<path fill="#FFFFFF" d="M307.961,38.287c0,0-10.696-1.542-16.864-1.542c-5.977,0-10.505,1.638-10.505,7.324
			c0,4.528,2.313,5.782,12.527,7.515c12.046,2.025,16.576,4.436,16.576,13.781c0,11.274-7.131,15.033-18.696,15.033
			c-6.167,0-16.96-1.832-16.96-1.832l0.386-6.263c0,0,10.985,1.638,15.901,1.638c7.899,0,12.14-1.733,12.14-8.286
			c0-5.011-2.504-6.265-13.008-7.903c-10.891-1.732-16.093-3.758-16.093-13.394c0-10.601,8.576-14.07,17.346-14.07
			c7.227,0,17.441,1.832,17.441,1.832L307.961,38.287z"/>
		<path fill="#FFFFFF" d="M356.334,73.17l0.191,5.688c0,0-10.984,1.541-18.791,1.541c-14.357,0-19.08-8.385-19.08-24.766
			c0-18.311,7.902-25.345,20.141-25.345c12.818,0,19.369,6.746,19.369,22.55l-0.385,5.494h-31.801
			c0,10.31,3.18,15.707,12.625,15.707C345.83,74.039,356.334,73.17,356.334,73.17z M350.938,52.549
			c0-11.949-3.662-16.188-12.143-16.188c-8.189,0-12.816,4.528-12.912,16.188H350.938z"/>
		<path fill="#FFFFFF" d="M369.438,79.436V31.252h7.131v3.372c0,0,7.229-4.336,14.07-4.336c6.455,0,10.021,1.446,12.527,4.916
			c0,0,8.576-4.916,17.152-4.916c13.105,0,16.287,6.263,16.287,23.706v25.441h-7.229V54.188c0-12.721-1.445-17.442-10.117-17.442
			c-7.133,0-13.588,3.565-13.588,3.565c0.867,2.217,1.252,8.288,1.252,14.069v25.057h-7.227V54.572
			c0-13.298-1.35-17.827-10.119-17.827c-6.842,0-12.914,3.565-12.914,3.565v39.125H369.438z"/>
		<path fill="#FFFFFF" d="M488.832,54.572c0,19.178-5.205,25.826-22.742,25.826c-5.783,0-16.094-1.061-16.094-1.061V10.244h7.131
			v23.417c0,0,7.324-3.374,14.164-3.374C484.396,30.288,488.832,37.227,488.832,54.572z M481.508,54.572
			c0-12.431-2.508-17.827-10.986-17.827c-6.65,0-13.395,2.794-13.395,2.794v33.92c0,0,6.264,0.481,8.865,0.481
			C479.195,73.941,481.508,68.064,481.508,54.572z"/>
		<path fill="#FFFFFF" d="M501.26,10.244h7.227v69.191h-7.227V10.244z"/>
		<path fill="#FFFFFF" d="M525.639,31.252l12.043,41.918h3.182l12.143-41.918h7.229l-20.045,69.576h-7.229l6.264-21.393h-7.129
			L518.41,31.252H525.639z"/>
	</g>
	<path fill-rule="evenodd" clip-rule="evenodd" fill="#FFFFFF" d="M35.046,100.657c0.169-0.242,0.352-0.471,0.499-0.724
		c13.499-23.337,26.994-46.678,40.49-70.019c5.622-9.722,11.234-19.445,16.85-29.168c0.136-0.24,0.245-0.498,0.369-0.746
		c0.039,0,0.079,0,0.121,0c6.718,11.627,13.44,23.255,20.155,34.886c10.802,18.701,21.602,37.405,32.407,56.106
		c1.773,3.068,3.559,6.125,5.338,9.188c0.107,0.183,0.207,0.369,0.37,0.656c-0.387,0-0.659,0-0.934,0
		c-38.257,0-76.512,0-114.771,0.006c-0.297,0-0.596,0.032-0.893,0.055C35.046,100.818,35.046,100.736,35.046,100.657z M57.593,71.44
		c0.031,0.034,0.062,0.062,0.092,0.097c16.041-13.463,32.083-26.92,48.137-40.391c-4.17-7.221-8.305-14.383-12.484-21.617
		C81.382,30.234,69.488,50.838,57.593,71.44z M107.673,34.356c-0.029,0.013-0.06,0.029-0.091,0.044
		c3.607,20.465,7.217,40.93,10.823,61.395c8.262,0,16.444,0,24.739,0C131.295,75.27,119.485,54.813,107.673,34.356z M43.53,95.799
		c23.283,0,46.434,0,69.588,0c0.006-0.031,0.017-0.063,0.025-0.094C93.988,88.732,74.836,81.76,55.663,74.783
		C51.615,81.795,47.596,88.757,43.53,95.799z M103.722,38.896c-9.754,8.186-19.408,16.285-29.06,24.386
		c0.019,0.032,0.038,0.062,0.059,0.095c10.419-3.793,20.841-7.588,31.308-11.396C105.262,47.636,104.504,43.326,103.722,38.896z
		 M63.413,72.723c11.552,4.205,23.019,8.379,34.483,12.55c0.019-0.036,0.038-0.071,0.059-0.108
		c-8.23-6.906-16.459-13.813-24.687-20.713C69.971,67.217,66.738,69.932,63.413,72.723z M106.528,54.816
		c-0.045,0.002-0.09,0.008-0.136,0.012c-1.849,10.496-3.7,20.99-5.557,31.516c4.014,1.461,7.979,2.902,12.026,4.375
		C110.736,78.668,108.632,66.741,106.528,54.816z M102.236,57.264c-5.004,1.821-9.866,3.592-14.729,5.362
		c0.012,0.028,0.023,0.058,0.037,0.085c4.575,0,9.147,0,13.741,0C101.595,60.924,101.902,59.178,102.236,57.264z M92.058,75.423
		c0.033-0.024,0.068-0.044,0.104-0.067c-0.549-0.943-1.095-1.893-1.64-2.836c-1.665-2.871-3.324-5.742-5-8.607
		c-0.099-0.169-0.377-0.403-0.49-0.365c-1.642,0.563-3.266,1.167-4.985,1.795C84.099,68.742,88.076,72.082,92.058,75.423z
		 M98.14,80.521c0.918-5.199,1.814-10.282,2.71-15.367c-0.042-0.02-0.079-0.036-0.121-0.049c-2.279,3.936-4.561,7.867-6.859,11.837
		C95.287,78.133,96.675,79.295,98.14,80.521z M93.5,71.601c1.259-2.153,2.451-4.191,3.673-6.284c-2.483,0-4.839,0-7.287,0
		C91.096,67.422,92.271,69.459,93.5,71.601z"/>
</g>
</svg>
